<svg xmlns="http://www.w3.org/2000/svg" viewBox="0 0 43 30">
  <path d="M2.3736608.6282323c.0752809.0585151.1320479.0959594.1810553.1415904 5.2589076 4.8987617 10.5168622 9.7981944 15.7767227 14.6960165.172479.1606482.35122.319149.5460246.451479 1.5291686 1.037838 3.5441915.8671242 4.9085044-.4043716C29.051818 10.6053272 34.3188935 5.6989156 39.5848799.7912962c.0608509-.0567704.1139423-.1217276.17139-.1835979C38.9830412.1554141 38.1603968 1e-7 37.2937817.0001343 26.4860059.0024158 15.6780939.0025501 4.8701819 1e-7 4.0032946-.0001341 3.1813308.156622 2.3736608.6282323M.700601 2.2227691C.2340773 2.9823918.0068733 3.7577171.0066011 4.591289c-.0029949 6.8999516-.0156552 13.7999032.0049007 20.6998548.0080318 2.7264552 2.0230547 4.6983876 4.7843521 4.7013402 10.8555582.0118104 21.7111163.0034894 32.5666744.0075157.8720603.0002684 1.6919821-.1831952 2.4356702-.6262191 1.5776314-.9399996 2.3533104-2.3388597 2.360117-4.1496071.0073511-1.9457617.0019058-3.8916575.0019058-5.8375534 0-4.8422597-.001089-9.6845193.0008168-14.5269132.0002723-.9299339-.1722067-1.8112843-.6978116-2.6266038-.085763.0743518-.154918.1305854-.2201251.1912478-4.6913741 4.3697099-9.3811146 8.7410303-14.0749391 13.1081902-.7916064.7364046-1.542101 1.5328006-2.4128 2.1661328-2.4733787 1.798937-5.7028334 1.5898394-7.9494165-.4909364-4.8939382-4.5327738-9.7669121-9.0874236-14.6485984-13.6329473-.4772781-.4443659-.9557814-.8871213-1.4567464-1.3520211"/>
</svg>

