<svg xmlns="http://www.w3.org/2000/svg" width="16" height="16" viewBox="0 0 16 16">
  <path d="M24.4672835,27.0820513 L24.4672835,32.5465962 C24.4672835,33.279801 24.5078207,33.7380471 24.5888962,33.9213483 C24.6699718,34.1046495 24.8285954,34.2650357 25.064772,34.4025116 C25.3009485,34.5399875 25.6199583,34.6087244 26.021811,34.6087244 L26.4976867,34.6087244 L26.4976867,35 L19,35 L19,34.6087244 L19.4758757,34.6087244 C19.8918285,34.6087244 20.2267006,34.5347 20.4805023,34.386649 C20.6638035,34.2879484 20.8048028,34.1187498 20.903503,33.8790482 C20.9810535,33.7098471 21.0198282,33.2657009 21.0198282,32.5465962 L21.0198282,21.4534038 C21.0198282,20.720199 20.9810535,20.2619529 20.903503,20.0786517 C20.8259525,19.8953505 20.6690913,19.7349643 20.4329147,19.5974884 C20.1967382,19.4600125 19.8777284,19.3912756 19.4758757,19.3912756 L19,19.3912756 L19,19 L26.4976867,19 L26.4976867,19.3912756 L26.021811,19.3912756 C25.6058582,19.3912756 25.2709861,19.4653 25.0171844,19.613351 C24.8338832,19.7120516 24.6893594,19.8812502 24.5836087,20.1209518 C24.5060582,20.2901529 24.4672835,20.7342991 24.4672835,21.4534038 L24.4672835,26.1514498 L29.5327165,26.1514498 L29.5327165,21.4534038 C29.5327165,20.720199 29.4939418,20.2619529 29.4163913,20.0786517 C29.3388408,19.8953505 29.1802171,19.7349643 28.9405155,19.5974884 C28.700814,19.4600125 28.3800417,19.3912756 27.978189,19.3912756 L27.5128883,19.3912756 L27.5128883,19 L35,19 L35,19.3912756 L34.5346993,19.3912756 C34.1116965,19.3912756 33.7768243,19.4653 33.5300727,19.613351 C33.3467715,19.7120516 33.2022477,19.8812502 33.096497,20.1209518 C33.0189465,20.2901529 32.9801718,20.7342991 32.9801718,21.4534038 L32.9801718,32.5465962 C32.9801718,33.279801 33.0189465,33.7380471 33.096497,33.9213483 C33.1740475,34.1046495 33.3326712,34.2650357 33.5723728,34.4025116 C33.8120743,34.5399875 34.1328466,34.6087244 34.5346993,34.6087244 L35,34.6087244 L35,35 L27.5128883,35 L27.5128883,34.6087244 L27.978189,34.6087244 C28.4011918,34.6087244 28.736064,34.5347 28.9828156,34.386649 C29.1661168,34.2879484 29.3106406,34.1187498 29.4163913,33.8790482 C29.4939418,33.7098471 29.5327165,33.2657009 29.5327165,32.5465962 L29.5327165,27.0820513 L24.4672835,27.0820513 Z" transform="translate(-19 -19)"/>
</svg>
