<svg width="22" height="17" viewBox="0 0 22 17" xmlns="http://www.w3.org/2000/svg">
<path d="M17 0C19.7579 0 22 2.24211 22 5C22 7.75789 19.7579 10 17 10C14.2421 10 12 7.75789 12 5C12 2.24211 14.2421 0 17 0ZM17 9.07368C19.2421 9.07368 21.0737 7.24211 21.0737 5C21.0737 2.75789 19.2421 0.926315 17 0.926315C14.7579 0.926315 12.9263 2.75789 12.9263 5C12.9263 7.24211 14.7579 9.07368 17 9.07368Z"/>
<path d="M14.6211 5.95789C14.8211 5.79999 15.1053 5.82105 15.2737 6.02105C15.2947 6.05263 15.8947 6.75789 17 6.75789C18.1053 6.75789 18.7053 6.05263 18.7263 6.02105C18.8842 5.82105 19.1789 5.78947 19.3789 5.94737C19.5789 6.10526 19.6105 6.4 19.4526 6.6C19.4211 6.6421 18.5579 7.68421 17 7.68421C15.4421 7.68421 14.5895 6.65263 14.5474 6.6C14.3895 6.4 14.4211 6.11578 14.6211 5.95789Z"/>
<path d="M18.6526 4.50526C18.298 4.50526 18.0105 4.21778 18.0105 3.86316C18.0105 3.50853 18.298 3.22105 18.6526 3.22105C19.0073 3.22105 19.2947 3.50853 19.2947 3.86316C19.2947 4.21778 19.0073 4.50526 18.6526 4.50526Z"/>
<path d="M15.3474 4.50526C14.9927 4.50526 14.7053 4.21778 14.7053 3.86316C14.7053 3.50853 14.9927 3.22105 15.3474 3.22105C15.702 3.22105 15.9895 3.50853 15.9895 3.86316C15.9895 4.21778 15.702 4.50526 15.3474 4.50526Z"/>
<path fill-rule="evenodd" clip-rule="evenodd" d="M10 3.28008C10 1.89917 8.88091 0.817805 7.5 0.817805C6.82864 0.817805 6.22045 1.10281 5.77091 1.53371L5.77 1.54235L5.75227 1.56462C5.73955 1.57735 5.72682 1.59235 5.71409 1.60553L5.00045 2.32008L4.27864 1.59917C4.27091 1.59144 4.26364 1.58417 4.25545 1.57644L4.23045 1.55144L4.23 1.55326C3.78045 1.1219 3.17182 0.855532 2.5 0.855532C1.11909 0.855532 0 1.97462 0 3.35553C0 3.93417 0.199545 4.46508 0.529545 4.88871C0.548636 4.9078 0.560909 4.92871 0.573636 4.94917L0.578636 4.95553C0.580909 4.95962 0.582273 4.96371 0.585 4.9678C0.598182 4.9819 0.606818 4.99826 0.616364 5.01417C0.618636 5.0169 0.619546 5.01962 0.621818 5.0219C0.624091 5.02644 0.627273 5.02962 0.63 5.03417L4.64682 9.17053C4.82455 9.3478 5.11227 9.3478 5.29 9.17053L9.22455 5.04417C9.23591 5.02826 9.33955 4.92326 9.35364 4.91008C9.36864 4.88826 9.44045 4.75826 9.45773 4.75826C9.79682 4.30371 10 3.8678 10 3.28008Z"/>
<path d="M7.00006 15.5C7.00006 16.3284 6.32849 17 5.50006 17C4.67163 17 4.00006 16.3284 4.00006 15.5C4.00006 14.6716 4.67163 14 5.50006 14C6.32849 14 7.00006 14.6716 7.00006 15.5Z"/>
<path d="M12.5001 15.5C12.5001 16.3284 11.8285 17 11.0001 17C10.1716 17 9.50006 16.3284 9.50006 15.5C9.50006 14.6716 10.1716 14 11.0001 14C11.8285 14 12.5001 14.6716 12.5001 15.5Z"/>
<path d="M18.0001 15.5C18.0001 16.3284 17.3285 17 16.5001 17C15.6716 17 15.0001 16.3284 15.0001 15.5C15.0001 14.6716 15.6716 14 16.5001 14C17.3285 14 18.0001 14.6716 18.0001 15.5Z"/>
</svg>
