<svg xmlns="http://www.w3.org/2000/svg" width="24" height="24" fill="currentColor" viewBox="0 0 24 24">
  <path fill-rule="evenodd" d="M4.75 4c.75 0 1.347.322 1.75.629C6.903 4.322 7.5 4 8.25 4 9.884 4 11 5.263 11 6.75c0 1.95-1.077 3.5-2.026 4.496a10.808 10.808 0 0 1-1.77 1.49l-.132.086-.038.024-.012.007-.005.003-.003.002a1 1 0 0 1-1.029 0v-.001l-.002-.001-.005-.003-.012-.007-.038-.024a9.621 9.621 0 0 1-.575-.399c-.36-.27-.842-.668-1.327-1.177C3.076 10.249 2 8.7 2 6.75 2 5.263 3.116 4 4.75 4Zm12.75 9a4.5 4.5 0 1 0 0-9 4.5 4.5 0 0 0 0 9Zm-1.591-4.765a.794.794 0 1 0 0-1.589.794.794 0 0 0 0 1.589Zm3.176 0a.794.794 0 1 0 0-1.588.794.794 0 0 0 0 1.588ZM16.08 9.788a.53.53 0 0 0-.877.594l.001.001v.001l.002.003.005.005.01.015a1.628 1.628 0 0 0 .142.17c.093.098.231.225.417.349.378.252.942.486 1.717.486.775 0 1.339-.234 1.716-.486a2.428 2.428 0 0 0 .528-.476l.032-.043.01-.014.004-.006.002-.003.001-.002a.53.53 0 0 0-.876-.594l-.006.008a1.368 1.368 0 0 1-.282.25c-.218.145-.58.307-1.13.307-.548 0-.91-.162-1.128-.308a1.37 1.37 0 0 1-.282-.25l-.006-.007ZM6 20a2 2 0 1 0 0-4 2 2 0 0 0 0 4Zm6 0a2 2 0 1 0 0-4 2 2 0 0 0 0 4Zm8-2a2 2 0 1 1-4 0 2 2 0 0 1 4 0Z" clip-rule="evenodd"/>
</svg>
