<svg width="22" height="22" viewBox="0 0 22 22" xmlns="http://www.w3.org/2000/svg">
<path d="M20.94 15.78C20.8764 15.8591 20.7956 15.9227 20.7038 15.966C20.612 16.0093 20.5115 16.0312 20.41 16.03C20.2568 16.0302 20.1084 15.9772 19.99 15.88L15.64 12.4C15.5346 12.3179 15.4036 12.2754 15.27 12.28C15.1309 12.2798 14.9949 12.3216 14.88 12.4L13.14 13.85L15.72 16.43C15.7973 16.5087 15.8542 16.605 15.886 16.7106C15.9178 16.8163 15.9233 16.928 15.9023 17.0363C15.8812 17.1445 15.8341 17.2461 15.7651 17.3321C15.6961 17.4181 15.6071 17.486 15.506 17.53C15.3824 17.5813 15.2462 17.5944 15.115 17.5676C14.9839 17.5409 14.8637 17.4756 14.77 17.38L7.77 10.38C7.73073 10.3407 7.68389 10.3098 7.63232 10.2892C7.58075 10.2686 7.52553 10.2586 7.47 10.26C7.37118 10.2613 7.27583 10.2966 7.2 10.36L2.27 14.82C2.17533 14.9075 2.05742 14.9659 1.93042 14.988C1.80342 15.0102 1.67272 14.9953 1.554 14.945C1.42751 14.8906 1.32087 14.7985 1.24858 14.6813C1.17629 14.5641 1.14187 14.4275 1.15 14.29C1.15259 14.2022 1.1735 14.116 1.21138 14.0367C1.24927 13.9575 1.3033 13.8871 1.37 13.83L6.28 9.36C6.6172 9.06012 7.05571 8.8995 7.50684 8.91064C7.95796 8.92177 8.38801 9.10384 8.71 9.42L12.19 12.9L14 11.37C14.3559 11.0891 14.7966 10.9375 15.25 10.94C15.6851 10.9352 16.1088 11.0799 16.45 11.35L20.81 14.83C20.9467 14.9434 21.0359 15.104 21.06 15.28C21.0802 15.4585 21.03 15.6379 20.92 15.78H20.94ZM15.84 2.78C16.372 2.78 16.8921 2.93777 17.3345 3.23335C17.7769 3.52893 18.1216 3.94905 18.3252 4.44058C18.5288 4.93212 18.5821 5.47298 18.4783 5.99479C18.3745 6.5166 18.1183 6.99591 17.7421 7.37212C17.3659 7.74832 16.8866 8.00452 16.3648 8.10831C15.843 8.21211 15.3021 8.15884 14.8106 7.95524C14.319 7.75164 13.8989 7.40685 13.6033 6.96448C13.3078 6.52212 13.15 6.00203 13.15 5.47C13.1526 4.75738 13.4369 4.0747 13.9408 3.57079C14.4447 3.06689 15.1274 2.78263 15.84 2.78ZM18.37 0H3.63C2.66808 0.00263904 1.7463 0.385932 1.06612 1.06612C0.385932 1.7463 0.00263904 2.66808 0 3.63V18.37C0.00263904 19.3319 0.385932 20.2537 1.06612 20.9339C1.7463 21.6141 2.66808 21.9974 3.63 22H18.37C19.3319 21.9974 20.2537 21.6141 20.9339 20.9339C21.6141 20.2537 21.9974 19.3319 22 18.37V3.63C21.9974 2.66808 21.6141 1.7463 20.9339 1.06612C20.2537 0.385932 19.3319 0.00263904 18.37 0Z" />
<path d="M15.86 6.81C16.2233 6.81 16.5718 6.66566 16.8287 6.40874C17.0857 6.15181 17.23 5.80335 17.23 5.44C17.23 5.07665 17.0857 4.72819 16.8287 4.47126C16.5718 4.21434 16.2233 4.07 15.86 4.07C15.4967 4.07 15.1482 4.21434 14.8913 4.47126C14.6343 4.72819 14.49 5.07665 14.49 5.44C14.49 5.80335 14.6343 6.15181 14.8913 6.40874C15.1482 6.66566 15.4967 6.81 15.86 6.81Z" fill="white"/>
</svg>
