<svg xmlns="http://www.w3.org/2000/svg" width="16" height="16" viewBox="0 0 16 16">
  <path d="M19.5925926,19 L34.4074074,19 C34.7346873,19 35,19.2653127 35,19.5925926 L35,34.4074074 C35,34.7346873 34.7346873,35 34.4074074,35 L19.5925926,35 C19.2653127,35 19,34.7346873 19,34.4074074 L19,19.5925926 C19,19.2653127 19.2653127,19 19.5925926,19 Z M20.7777778,20.1851852 C20.4504979,20.1851852 20.1851852,20.4504979 20.1851852,20.7777778 L20.1851852,30.3482337 C20.1851852,30.4827946 20.2309812,30.613349 20.3150407,30.7184234 C20.5194908,30.973986 20.8924048,31.0154209 21.1479674,30.8109708 L22.852074,29.4476855 C23.032565,29.3032927 23.28054,29.2770222 23.4872791,29.3803917 L25.1626816,30.2180929 C25.3779045,30.3257044 25.6368321,30.292487 25.817922,30.1340334 L29.878421,26.5810968 C30.0977659,26.3891699 30.4241097,26.3852386 30.6480144,26.5718259 L32.8428537,28.4008586 C32.9493515,28.4896068 33.0835932,28.538209 33.2222222,28.538209 C33.5495021,28.538209 33.8148148,28.2728962 33.8148148,27.9456164 L33.8148148,20.7777778 C33.8148148,20.4504979 33.5495021,20.1851852 33.2222222,20.1851852 L20.7777778,20.1851852 Z M25.2222222,25.5641026 C24.4040226,25.5641026 23.7407407,24.9008207 23.7407407,24.0826211 C23.7407407,23.2644215 24.4040226,22.6011396 25.2222222,22.6011396 C26.0404219,22.6011396 26.7037037,23.2644215 26.7037037,24.0826211 C26.7037037,24.9008207 26.0404219,25.5641026 25.2222222,25.5641026 Z" transform="translate(-19 -19)"/>
</svg>
