<svg width="22" height="22" viewBox="0 0 22 22" fill="none" xmlns="http://www.w3.org/2000/svg">
<g clip-path="url(#clip0)">
<path d="M20.94 15.78C20.8764 15.8591 20.7956 15.9227 20.7038 15.966C20.612 16.0093 20.5115 16.0312 20.41 16.03C20.2568 16.0302 20.1084 15.9772 19.99 15.88L15.64 12.4C15.5346 12.3179 15.4036 12.2754 15.27 12.28C15.1309 12.2798 14.9949 12.3216 14.88 12.4L13.14 13.85L15.72 16.43C15.844 16.557 15.9134 16.7275 15.9134 16.905C15.9134 17.0825 15.844 17.253 15.72 17.38C15.66 17.4443 15.5871 17.4953 15.5062 17.5298C15.4252 17.5642 15.338 17.5813 15.25 17.58C15.1607 17.5803 15.0722 17.5628 14.9898 17.5285C14.9074 17.4941 14.8326 17.4436 14.77 17.38L7.77 10.38C7.73073 10.3407 7.68389 10.3098 7.63232 10.2892C7.58075 10.2686 7.52553 10.2586 7.47 10.26C7.37118 10.2613 7.27583 10.2966 7.2 10.36L2.27 14.82C2.14772 14.9341 1.98721 14.9983 1.82 15C1.72854 15.0002 1.63802 14.9816 1.55401 14.9455C1.47 14.9093 1.39428 14.8564 1.33152 14.7898C1.26875 14.7233 1.22026 14.6447 1.18904 14.5587C1.15783 14.4727 1.14454 14.3813 1.15 14.29C1.15259 14.2022 1.1735 14.116 1.21138 14.0367C1.24927 13.9575 1.3033 13.8871 1.37 13.83L6.28 9.36C6.6172 9.06012 7.05571 8.8995 7.50684 8.91064C7.95796 8.92177 8.38801 9.10384 8.71 9.42L12.19 12.9L14 11.37C14.3559 11.0891 14.7966 10.9375 15.25 10.94C15.6852 10.9352 16.1088 11.0799 16.45 11.35L20.81 14.83C20.9467 14.9434 21.0359 15.104 21.06 15.28C21.0802 15.4585 21.03 15.6379 20.92 15.78H20.94ZM15.84 2.78C16.372 2.78 16.8921 2.93777 17.3345 3.23335C17.7769 3.52893 18.1216 3.94905 18.3252 4.44058C18.5288 4.93212 18.5821 5.47298 18.4783 5.99479C18.3745 6.5166 18.1183 6.99591 17.7421 7.37212C17.3659 7.74832 16.8866 8.00452 16.3648 8.10831C15.843 8.21211 15.3021 8.15884 14.8106 7.95524C14.319 7.75164 13.8989 7.40685 13.6033 6.96448C13.3078 6.52212 13.15 6.00203 13.15 5.47C13.1526 4.75738 13.4369 4.0747 13.9408 3.57079C14.4447 3.06689 15.1274 2.78263 15.84 2.78ZM18.37 0H3.63C2.66808 0.00263904 1.7463 0.385932 1.06612 1.06612C0.385932 1.7463 0.00263904 2.66808 0 3.63L0 18.37C0.00263904 19.3319 0.385932 20.2537 1.06612 20.9339C1.7463 21.6141 2.66808 21.9974 3.63 22H18.37C19.3319 21.9974 20.2537 21.6141 20.9339 20.9339C21.6141 20.2537 21.9974 19.3319 22 18.37V3.63C21.9974 2.66808 21.6141 1.7463 20.9339 1.06612C20.2537 0.385932 19.3319 0.00263904 18.37 0" fill="white"/>
<path d="M15.8602 6.80982C16.1312 6.80982 16.3961 6.72948 16.6214 6.57894C16.8467 6.4284 17.0223 6.21444 17.1259 5.9641C17.2296 5.71377 17.2568 5.43831 17.2039 5.17255C17.151 4.9068 17.0206 4.66269 16.829 4.47109C16.6374 4.27949 16.3933 4.14901 16.1275 4.09615C15.8618 4.04329 15.5863 4.07042 15.336 4.17411C15.0856 4.2778 14.8717 4.4534 14.7211 4.67869C14.5706 4.90399 14.4902 5.16886 14.4902 5.43983C14.4902 5.80317 14.6346 6.15164 14.8915 6.40856C15.1484 6.66549 15.4969 6.80982 15.8602 6.80982Z" fill="white"/>
</g>
<defs>
<clipPath id="clip0">
<rect width="22" height="22" fill="white"/>
</clipPath>
</defs>
</svg>
