<svg xmlns="http://www.w3.org/2000/svg" width="18" height="18" viewBox="0 0 18 18">
  <path fill-rule="evenodd" d="M32.8579598,19.8 C32.1298954,19.7972048 31.5011234,20.4209553 31.5,21.147115 C31.4988795,21.8731145 32.1290139,22.5028749 32.8535521,22.5 C33.5729615,22.4970252 34.195162,21.8784032 34.1999704,21.1612183 C34.204939,20.4323341 33.5842611,19.8028141 32.8579598,19.8 M36,18.0119591 L36,18.2407207 C36,20.7679839 36.0013811,23.2952471 35.9945505,25.8225103 C35.9943094,25.9275261 35.9438434,26.0601566 35.8700731,26.1331554 C32.7306534,29.2388861 29.5863319,32.3398142 26.4413674,35.440102 C25.717807,36.1534411 24.6697534,36.1880996 24.0150614,35.5271883 C23.4040048,34.9103004 22.7933501,34.2929323 22.1789184,33.6793262 C20.9877438,32.489814 19.7933549,31.3034234 18.601457,30.1146316 C17.8082246,29.3234911 17.7958492,28.2125006 18.5866708,27.423121 C21.6981252,24.3177105 24.8137583,21.2163822 27.9316415,18.1172951 C27.9943222,18.0549419 28.1024866,18.0049153 28.1895967,18.0047552 C30.7402998,17.9988321 33.2910029,18 35.8416257,18.0003529 C35.8814842,18.0004329 35.9212623,18.0060359 36,18.0119591" transform="translate(-18 -18)"/>
</svg>
