<svg xmlns="http://www.w3.org/2000/svg" viewBox="0 0 42 42">
  <g> 
    <path d="M35.648931 9.82138407c-1.4757611-.00947788-2.6526903 1.14942473-2.6690443 2.62853093-.016354 1.4815222 1.1273098 2.6788938 2.5883894 2.7095576 1.5079115.0315929 2.7262832-1.1652213 2.7227522-2.6746195-.0033451-1.4765044-1.1715398-2.65399115-2.6420973-2.66346903m-1.8240266-3.54007965c2.3839646 0 4.7681151.01691151 7.151708-.01133628.6281416-.00724779.869177.16261062.8628584.83238053-.0451593 4.76755753-.0464602 9.53567253-.0949646 14.30341593-.003531.3545841-.1743186.7976283-.4214867 1.0468407-6.0147345 6.0684425-12.0439646 12.1225752-18.0869469 18.1629558-1.606593 1.6060354-3.7552832 1.6091947-5.3793452.0117079-3.4434424-3.386761-6.8697876-6.7908053-10.2842389-10.2063717-1.68743363-1.6878053-1.69486726-3.8305486-.02211505-5.5198407C13.5402053 18.8511982 19.5385858 12.8095168 25.5575947 6.78864956c.285823-.28600885.7976283-.47742478 1.2085221-.48523009 2.3521859-.04553097 4.7056726-.02211505 7.0587876-.02211505"/>
    <path d="M3.90159558 26.8345991c-1.05055753-1.1458938-2.35869027-2.3397345-3.37282301-3.7456195-.97975222-1.3584955-.53670797-3.1693274.82438938-4.5430619C5.4511354 14.4102186 9.5580292 10.283254 13.6610204 6.15257257c1.8335044-1.84576992 3.6474955-3.71142478 5.5163097-5.52058407.3348849-.32429204.8927787-.58595576 1.3503186-.59004425 4.7075309-.04255752 9.4156194-.01077876 14.1231504-.04181416.751354-.0050177.9663717.24623894.9306903.96079646-.0505487 1.0148761-.012823 2.03402655-.012823 3.15780531-.3991859.02397345-.7238496.05965487-1.0485133.06021239-2.8184602.00446017-5.6374779-.02527434-8.4550089.02917699-.4902477.00947788-1.1001769.23880531-1.441938.58000885C18.4642593 10.9359265 12.312746 17.0919 6.23129469 23.316077c-.93106195.9528053-1.5069823 2.2523894-2.32969911 3.5185221"/>
  </g>
</svg>

