<svg xmlns="http://www.w3.org/2000/svg" width="24" height="24" fill="currentColor" viewBox="0 0 24 24">
  <path fill-rule="evenodd" d="M3 3a1 1 0 0 1 1 1v2a1 1 0 0 0 1 1h14a1 1 0 0 0 1-1V4a1 1 0 1 1 2 0v2a3 3 0 0 1-3 3H5a3 3 0 0 1-3-3V4a1 1 0 0 1 1-1Zm0 18a1 1 0 0 0 1-1v-2a1 1 0 0 1 1-1h14a1 1 0 0 1 1 1v2a1 1 0 1 0 2 0v-2a3 3 0 0 0-3-3H5a3 3 0 0 0-3 3v2a1 1 0 0 0 1 1Zm17-8a1 1 0 1 0 0-2h-2a1 1 0 1 0 0 2h2Zm-6 0a1 1 0 1 0 0-2h-4a1 1 0 1 0 0 2h4Zm-8 0a1 1 0 1 0 0-2H4a1 1 0 1 0 0 2h2Z" clip-rule="evenodd"/>
</svg>
