<svg xmlns="http://www.w3.org/2000/svg" width="16" height="16" viewBox="0 0 16 16">
  <path fill-rule="evenodd" d="M20.8839625,27.282868 L22.1344649,27.282868 L22.1344649,26.6535123 L20.8839625,26.6535123 L20.8839625,27.282868 Z M22.7610843,27.282868 L24.0115866,27.282868 L24.0115866,26.6535123 L22.7610843,26.6535123 L22.7610843,27.282868 Z M24.6354697,27.282868 L25.2627731,27.282868 L25.2627731,26.6535123 L24.6368378,26.6535123 L24.6354697,27.282868 Z M25.8873402,27.282868 L27.4949335,27.282868 L27.4949335,26.6535123 L25.8873402,26.6535123 L25.8873402,27.282868 Z M28.1215529,27.282868 L29.3720552,27.282868 L29.3720552,26.6535123 L28.1215529,26.6535123 L28.1215529,27.282868 Z M29.9979905,27.282868 L31.2484929,27.282868 L31.2484929,26.6535123 L29.9979905,26.6535123 L29.9979905,27.282868 Z M31.8723759,27.282868 L33.1249305,27.282868 L33.1249305,26.6535123 L31.87306,26.6535123 L31.8723759,27.282868 Z M33.7494976,27.282868 L35,27.282868 L35,26.6535123 L33.7494976,26.6535123 L33.7494976,27.282868 Z M32.8123049,31.0425841 L19,31.0425841 L19,29.4691949 L34.3754329,29.4691949 L34.3754329,34.1551584 C33.8808414,34.4766771 33.3575185,34.7612553 32.8123049,35 L32.8123049,31.0425841 Z M32.8123049,22.9567318 L19,22.9567318 L19,24.530121 L34.3754329,24.530121 L34.3754329,19.8441575 C33.8782669,19.5206418 33.3554828,19.2383155 32.8123049,19 L32.8123049,22.9567318 Z" transform="translate(-19 -19)"/>
</svg>
