<svg width="18" height="18" viewBox="0 0 18 18" fill="none" xmlns="http://www.w3.org/2000/svg">
<path d="M10 1C10 0.447715 10.4477 0 11 0H17C17.5523 0 18 0.447715 18 1V7C18 7.55228 17.5523 8 17 8H11C10.4477 8 10 7.55228 10 7V1Z"/>
<path d="M10.297 17.7028C9.90646 17.3123 9.90646 16.6791 10.297 16.2886L16.2888 10.2968C16.6793 9.90627 17.3125 9.90628 17.703 10.2968C18.0935 10.6873 18.0935 11.3205 17.703 11.711L11.7112 17.7028C11.3207 18.0933 10.6875 18.0933 10.297 17.7028Z"/>
<circle cx="4" cy="14" r="4"/>
<path d="M3.77639 0.447214C3.86852 0.262952 4.13148 0.262951 4.22361 0.447214L7.8191 7.6382C7.90221 7.80442 7.78134 8 7.59549 8H0.404509C0.218663 8 0.0977891 7.80442 0.180902 7.6382L3.77639 0.447214Z"/>
</svg>
