<svg xmlns="http://www.w3.org/2000/svg" viewBox="0 0 40 40">
  <path d="M32.9812224 4.011805c-1.6223768-.0062256-3.023496 1.3783325-3.0259961 2.9902115-.0025001 1.6115231 1.401655 3.0094217 3.0161743 3.0030183 1.6030904-.0065813 2.9895663-1.3797556 3.000281-2.9717128.0110718-1.6179266-1.3720111-3.0152915-2.9904592-3.021517M39.9996762.0265757v.5083591c0 5.6161405.0033929 11.232281-.0117862 16.8484215-.0005357.2333685-.1126824.5281029-.2766165.6903224-6.9764881 6.9016238-13.9638694 13.7925751-20.9526793 20.6821035-1.607912 1.5851981-3.93692 1.6622168-5.3917911.1935251-1.3579035-1.3708619-2.714914-2.7427911-4.0803178-4.1063603-2.6470546-2.6433604-5.3012523-5.2797839-7.9499141-7.9215435-1.7627387-1.75809-1.7902397-4.2269577-.0328583-5.9811345C8.218056 14.0393568 15.1416851 7.147516 22.0703144.2606557c.1392904-.1385625.3796558-.2497327.5732338-.2500885 5.6682291-.0131625 11.3364583-.0106723 17.0045088-.009783.0885745.0001779.1769703.012629.3516192.0257915"/>
</svg>
