<svg xmlns="http://www.w3.org/2000/svg" width="16" height="16" viewBox="0 0 16 16">
  <path d="M33.2857143,19 C34.1767956,19 34.9090842,19.6798721 34.9921525,20.5491886 L35,20.7142857 L35,33.2857143 C35,34.2324881 34.2324881,35 33.2857143,35 L20.7142857,35 C19.7675119,35 19,34.2324881 19,33.2857143 L19,20.7142857 C19,19.7675119 19.7675119,19 20.7142857,19 L33.2857143,19 Z M23.602,30.4285714 L20.4928571,30.4285714 C20.2995575,30.4285714 20.1428571,30.5852718 20.1428571,30.7785714 L20.1428571,33.2857143 L20.1428571,33.2857143 C20.1428571,33.6013056 20.3986944,33.8571429 20.7142857,33.8571429 L23.602,33.8571429 C23.7952997,33.8571429 23.952,33.7004425 23.952,33.5071429 L23.952,30.7785714 C23.952,30.5852718 23.7952997,30.4285714 23.602,30.4285714 Z M28.554,30.4285714 L25.4448571,30.4285714 C25.2515575,30.4285714 25.0948571,30.5852718 25.0948571,30.7785714 L25.0948571,33.5071429 C25.0948571,33.7004425 25.2515575,33.8571429 25.4448571,33.8571429 L28.554,33.8571429 C28.7472997,33.8571429 28.904,33.7004425 28.904,33.5071429 L28.904,30.7785714 C28.904,30.5852718 28.7472997,30.4285714 28.554,30.4285714 Z M33.5071429,30.4285714 L30.3968571,30.4285714 C30.2035575,30.4285714 30.0468571,30.5852718 30.0468571,30.7785714 L30.0468571,33.5071429 C30.0468571,33.7004425 30.2035575,33.8571429 30.3968571,33.8571429 L33.2857143,33.8571429 L33.2857143,33.8571429 C33.6013056,33.8571429 33.8571429,33.6013056 33.8571429,33.2857143 L33.8571429,30.7785714 C33.8571429,30.5852718 33.7004425,30.4285714 33.5071429,30.4285714 Z M23.602,26.4285714 L20.4928571,26.4285714 C20.2995575,26.4285714 20.1428571,26.5852718 20.1428571,26.7785714 L20.1428571,28.9357143 C20.1428571,29.1290139 20.2995575,29.2857143 20.4928571,29.2857143 L23.602,29.2857143 C23.7952997,29.2857143 23.952,29.1290139 23.952,28.9357143 L23.952,26.7785714 C23.952,26.5852718 23.7952997,26.4285714 23.602,26.4285714 Z M28.554,26.4285714 L25.4448571,26.4285714 C25.2515575,26.4285714 25.0948571,26.5852718 25.0948571,26.7785714 L25.0948571,28.9357143 C25.0948571,29.1290139 25.2515575,29.2857143 25.4448571,29.2857143 L28.554,29.2857143 C28.7472997,29.2857143 28.904,29.1290139 28.904,28.9357143 L28.904,26.7785714 C28.904,26.5852718 28.7472997,26.4285714 28.554,26.4285714 Z M33.5071429,26.4285714 L30.3968571,26.4285714 C30.2035575,26.4285714 30.0468571,26.5852718 30.0468571,26.7785714 L30.0468571,28.9357143 C30.0468571,29.1290139 30.2035575,29.2857143 30.3968571,29.2857143 L33.5071429,29.2857143 C33.7004425,29.2857143 33.8571429,29.1290139 33.8571429,28.9357143 L33.8571429,26.7785714 C33.8571429,26.5852718 33.7004425,26.4285714 33.5071429,26.4285714 Z M20.1428571,22.7785714 L20.1428571,24.9357143 C20.1428571,25.1290139 20.2995575,25.2857143 20.4928571,25.2857143 L23.602,25.2857143 C23.7952997,25.2857143 23.952,25.1290139 23.952,24.9357143 L23.952,22.7785714 C23.952,22.5852718 23.7952997,22.4285714 23.602,22.4285714 L20.4928571,22.4285714 C20.2995575,22.4285714 20.1428571,22.5852718 20.1428571,22.7785714 Z M28.554,22.4285714 L25.4448571,22.4285714 C25.2515575,22.4285714 25.0948571,22.5852718 25.0948571,22.7785714 L25.0948571,24.9357143 C25.0948571,25.1290139 25.2515575,25.2857143 25.4448571,25.2857143 L28.554,25.2857143 C28.7472997,25.2857143 28.904,25.1290139 28.904,24.9357143 L28.904,22.7785714 C28.904,22.5852718 28.7472997,22.4285714 28.554,22.4285714 Z M33.5071429,22.4285714 L30.3968571,22.4285714 C30.2035575,22.4285714 30.0468571,22.5852718 30.0468571,22.7785714 L30.0468571,24.9357143 C30.0468571,25.1290139 30.2035575,25.2857143 30.3968571,25.2857143 L33.5071429,25.2857143 C33.7004425,25.2857143 33.8571429,25.1290139 33.8571429,24.9357143 L33.8571429,22.7785714 C33.8571429,22.5852718 33.7004425,22.4285714 33.5071429,22.4285714 Z" transform="translate(-19 -19)"/>
</svg>
