<svg xmlns="http://www.w3.org/2000/svg" width="25" height="18" viewBox="0 0 25 18">
  <path d="M28.489223,18.75 L28.689799,23.0022124 L27.7599547,23.0022124 L27.7314674,22.7846733 C27.6484749,22.1509122 27.5367358,21.7039558 27.4048858,21.4541275 C27.1836615,21.0402239 26.8941617,20.7401969 26.5341592,20.5479626 C26.1692101,20.3530868 25.675808,20.2529499 25.0530973,20.2529499 L23.04941,20.2529499 L23.04941,32.2271386 C23.04941,33.1499577 23.148446,33.7221653 23.303378,33.9001183 C23.5498106,34.1724912 23.9424032,34.3134218 24.4985251,34.3134218 L25.3030973,34.3134218 L25.3030973,35.25 L18.0184366,35.25 L18.0184366,34.3134218 L18.8348083,34.3134218 C19.4353813,34.3134218 19.8371131,34.1421919 20.0683258,33.8082203 C20.2027262,33.6127288 20.2839233,33.0738754 20.2839233,32.2271386 L20.2839233,20.2529499 L18.6106195,20.2529499 C17.8893498,20.2529499 17.3817671,20.3055881 17.1034974,20.4029578 C16.7457181,20.5336848 16.4366109,20.7872223 16.1737847,21.1708064 C15.9101403,21.5555847 15.7496218,22.0882143 15.6976571,22.7711793 L15.6800785,23.0022124 L14.7371051,23.0022124 L14.9510529,18.75 L28.489223,18.75 Z M38.8050653,23.8178733 L38.9549049,26.8646238 L38.1568229,26.8646238 L38.127307,26.6484434 C38.0698797,26.2278329 37.9931355,25.9334045 37.906129,25.7752812 C37.7570478,25.5077566 37.5631719,25.3150439 37.3216761,25.191361 C37.0741808,25.0646054 36.7351369,24.9986085 36.3042171,24.9986085 L34.9593734,24.9986085 L34.9593734,33.0455692 C34.9593734,33.651174 35.0266882,34.0242058 35.1166777,34.1233706 C35.2755654,34.2918048 35.5354456,34.3812818 35.9117687,34.3812818 L36.5542171,34.3812818 L36.5542171,35.1776018 L31.2529861,35.1776018 L31.2529861,34.3812818 L31.9037845,34.3812818 C32.3085297,34.3812818 32.5716549,34.2737144 32.7192891,34.0691843 C32.8007699,33.9555113 32.8561798,33.6028225 32.8561798,33.0455692 L32.8561798,24.9986085 L31.7451352,24.9986085 C31.241357,24.9986085 30.888045,25.0337506 30.7005716,25.0966611 C30.4617323,25.1803621 30.2552513,25.3428 30.0781662,25.5906842 C29.9011713,25.8384419 29.7921888,26.1852837 29.756561,26.6343941 L29.738297,26.8646238 L28.9265868,26.8646238 L29.0864157,23.8178733 L38.8050653,23.8178733 Z" transform="translate(-14 -18)"/>
</svg>
