<svg xmlns="http://www.w3.org/2000/svg" viewBox="0 0 30 30">
  <path d="M7.0360766 26.4894035c0 .8814891-.0032119 1.6377313.0008921 2.3937904.0039257.7498333.3720404 1.1204469 1.1071992 1.1131225.6241712-.0062257 1.2485209 0 1.8726922 0 3.8346026 0 7.6693837.0177617 11.5036295-.0247197.4378834-.004944 1.1994508-.2830873 1.248164-.5447508.1638048-.8798411.1787935-1.8327428-.0021412-2.7023298-.0405051-.193913-1.112017-.167179-1.7097796-.2309011-.2653352-.0281988-.5378079-.0014649-.7992175-.0466929-.8854025-.1527133-1.5143915-.8371766-1.5165327-1.7578511-.014275-6.2227929-.0064238-12.4455858-.0094572-18.6685618-.0003569-.7329872.3820328-1.0512315 1.0536682-1.0614857.6835906-.0106203 1.3673597-.0038453 2.0509503-.0038453 3.2709214.0001831 4.6188315 1.0794305 5.4232238 4.3420754.2171573.8809397.5940154 1.0706411 1.7927525.9644376.7890467-.0699478.9501749-.5780766.9478553-1.267667-.0091003-2.562251.002855-5.1246852-.0069591-7.6869363C29.9890908.2851538 29.7098376.002799 28.7191575.0024328c-9.1555822-.003296-18.3111644-.0034791-27.4667466.0009155C.2358575.0038976.0047821.2521941.0026409 1.3058061-.0021769 3.7766856.001035 6.247565.0012134 8.7184445c.0001784 1.3857726.2180495 1.5694314 1.5416923 1.5531346.9114542-.0113527 1.1198681-.5963876 1.2738589-1.337981.5474435-2.6360442 2.1630085-3.9698137 4.7826363-3.9780537.8322284-.0027466 1.6648136.0108035 2.4968634-.003479.7852995-.013367 1.1229016.3574297 1.1214741 1.1684216-.0115984 6.1314213-.0008922 12.2628425-.0107062 18.3940807-.0019628 1.2176781-.6905497 1.9248469-1.8785806 1.9698919-.7092855.026917-1.4201769.0049439-2.292375.0049439"/>
</svg>
