<svg width="24" height="25" viewBox="0 0 24 25" fill="none" xmlns="http://www.w3.org/2000/svg">
<path fill-rule="evenodd" clip-rule="evenodd" d="M7.29241 1.79289C7.68293 1.40237 8.31609 1.40237 8.70662 1.79289L10.3917 3.47796L10.4139 3.49985L16.9997 10.0856C17.7807 10.8667 17.7807 12.133 16.9997 12.9141L11.121 18.7927C9.94944 19.9643 8.04995 19.9643 6.87838 18.7927L1.7068 13.6212C0.53523 12.4496 0.535233 10.5501 1.70681 9.37853L7.58532 3.50002L7.29241 3.20711C6.90188 2.81658 6.90188 2.18342 7.29241 1.79289ZM8.99953 4.91423L3.41376 10.5H14.5856L9.71838 5.63274L9.70256 5.61726L8.99953 4.91423ZM20.6972 12.7836C20.3089 12.4055 19.6901 12.4055 19.3019 12.7836L19.2957 12.7896L19.2809 12.8041L19.2271 12.8573C19.1812 12.9029 19.1162 12.9681 19.0374 13.0483C18.8805 13.2084 18.6669 13.4308 18.4423 13.6788C18.2193 13.925 17.9767 14.2058 17.7658 14.4814C17.5691 14.7383 17.3455 15.0596 17.218 15.3748C17.0768 15.7236 16.9995 16.104 16.9995 16.5C16.9995 18.1569 18.3427 19.5 19.9995 19.5C21.6564 19.5 22.9995 18.1569 22.9995 16.5C22.9995 16.104 22.9223 15.7236 22.7811 15.3748C22.6535 15.0596 22.4299 14.7383 22.2332 14.4814C22.0223 14.2058 21.7797 13.925 21.5567 13.6788C21.3321 13.4308 21.1185 13.2084 20.9616 13.0483C20.8829 12.9681 20.8178 12.9029 20.772 12.8573L20.7182 12.8041L20.7033 12.7896L20.6972 12.7836ZM0.999512 22.5C0.999512 21.9477 1.44723 21.5 1.99951 21.5H13.9995C14.5518 21.5 14.9995 21.9477 14.9995 22.5C14.9995 23.0523 14.5518 23.5 13.9995 23.5H1.99951C1.44723 23.5 0.999512 23.0523 0.999512 22.5Z" fill="#A0A6B6"/>
</svg>
