<svg xmlns="http://www.w3.org/2000/svg" fill="none" viewBox="0 0 24 24" class="w-32 h-32"><path fill="#09F" d="M7.731 7.614a.412.412 0 0 1 0 .772l-.528.195a2.745 2.745 0 0 0-1.622 1.622l-.195.528a.412.412 0 0 1-.772 0l-.195-.528a2.745 2.745 0 0 0-1.622-1.622l-.528-.195a.412.412 0 0 1 0-.772l.528-.195a2.745 2.745 0 0 0 1.622-1.622l.195-.528a.412.412 0 0 1 .772 0l.195.528a2.753 2.753 0 0 0 1.622 1.622l.528.195Z"></path><path fill="#FF6100" d="M17.462 15.228c.717.265.717 1.28 0 1.544l-1.055.39a5.49 5.49 0 0 0-3.244 3.245l-.39 1.055c-.266.717-1.28.717-1.545 0l-.39-1.055a5.49 5.49 0 0 0-3.245-3.244l-1.055-.39c-.717-.266-.717-1.28 0-1.545l1.055-.39a5.49 5.49 0 0 0 3.244-3.245l.39-1.055c.266-.717 1.28-.717 1.545 0l.39 1.055a5.49 5.49 0 0 0 3.245 3.244l1.055.39Z"></path><path fill="#FFB629" d="M17.485 2.359a.549.549 0 0 1 1.03 0l.26.703a3.66 3.66 0 0 0 2.163 2.163l.704.26a.55.55 0 0 1 0 1.03l-.704.26a3.66 3.66 0 0 0-2.163 2.163l-.26.703a.549.549 0 0 1-1.03 0l-.26-.703a3.66 3.66 0 0 0-2.163-2.163l-.704-.26a.55.55 0 0 1 0-1.03l.704-.26a3.66 3.66 0 0 0 2.163-2.163l.26-.703Z"></path></svg>