<svg xmlns="http://www.w3.org/2000/svg" fill="currentColor" viewBox="0 0 24 24" width="28" height="28"><path fill-rule="evenodd" d="M13 2a1 1 0 1 0-2 0v3a1 1 0 1 0 2 0V2Zm0 16a1 1 0 1 0-2 0v4a1 1 0 1 0 2 0v-4Zm10-6a1 1 0 0 1-1 1h-2a1 1 0 1 1 0-2h2a1 1 0 0 1 1 1ZM5.5 13a1 1 0 1 0 0-2H2a1 1 0 1 0 0 2h3.5Zm14.278 6.779a1 1 0 0 1-1.414 0l-1.071-1.072a1 1 0 1 1 1.414-1.414l1.071 1.071a1 1 0 0 1 0 1.415ZM6.293 7.707a1 1 0 0 0 1.414-1.414l-2.071-2.07a1 1 0 1 0-1.414 1.414l2.07 2.07Zm-2.07 12.071a1 1 0 0 1 0-1.414l2.828-2.828a1 1 0 1 1 1.414 1.414l-2.829 2.828a1 1 0 0 1-1.414 0Zm12.57-13.985a1 1 0 0 0 1.414 1.414l1.571-1.57a1 1 0 0 0-1.414-1.415l-1.571 1.571Z" clip-rule="evenodd"></path></svg>