<svg width="24" height="25" viewBox="0 0 24 25" fill="none" xmlns="http://www.w3.org/2000/svg">
<path fill-rule="evenodd" clip-rule="evenodd" d="M18.5148 2.85852C18.3379 2.38049 17.6618 2.38049 17.4849 2.85852L17.2246 3.56208C16.8538 4.56401 16.0639 5.35397 15.062 5.72472L14.3584 5.98506C13.8804 6.16194 13.8804 6.83806 14.3584 7.01494L15.062 7.27528C16.0639 7.64603 16.8538 8.43599 17.2246 9.43792L17.4849 10.1415C17.6618 10.6195 18.3379 10.6195 18.5148 10.1415L18.7752 9.43792C19.1459 8.43599 19.9359 7.64603 20.9378 7.27528L21.6414 7.01494C22.1194 6.83806 22.1194 6.16194 21.6414 5.98506L20.9378 5.72472C19.9359 5.35397 19.1459 4.56401 18.7752 3.56208L18.5148 2.85852ZM7.73111 8.11379C8.08963 8.24646 8.08963 8.75354 7.73111 8.88621L7.20344 9.08146C6.45199 9.35952 5.85952 9.95199 5.58146 10.7034L5.38621 11.2311C5.25354 11.5896 4.74646 11.5896 4.61379 11.2311L4.41854 10.7034C4.14048 9.95199 3.54801 9.35952 2.79656 9.08146L2.26889 8.88621C1.91037 8.75354 1.91037 8.24646 2.26889 8.11379L2.79656 7.91854C3.54801 7.64048 4.14048 7.04801 4.41854 6.29656L4.61379 5.76889C4.74646 5.41037 5.25354 5.41037 5.38621 5.76889L5.58146 6.29656C5.85952 7.04801 6.45199 7.64048 7.20344 7.91854L7.73111 8.11379ZM17.4622 15.7276C18.1793 15.9929 18.1793 17.0071 17.4622 17.2724L16.4069 17.6629C14.904 18.219 13.719 19.404 13.1629 20.9069L12.7724 21.9622C12.5071 22.6793 11.4929 22.6793 11.2276 21.9622L10.8371 20.9069C10.281 19.404 9.09602 18.219 7.59312 17.6629L6.53778 17.2724C5.82074 17.0071 5.82074 15.9929 6.53778 15.7276L7.59312 15.3371C9.09602 14.781 10.281 13.596 10.8371 12.0931L11.2276 11.0378C11.4929 10.3207 12.5071 10.3207 12.7724 11.0378L13.1629 12.0931C13.719 13.596 14.904 14.781 16.4069 15.3371L17.4622 15.7276Z" fill="#A0A6B6"/>
</svg>
