<svg xmlns="http://www.w3.org/2000/svg" fill="currentColor" viewBox="0 0 24 24"><path fill-rule="evenodd" d="M2 3h1l.19 2.072.764 12.24.001.022c.007.113.016.248.033.367.02.139.06.335.175.538a1.5 1.5 0 0 0 .65.61c.209.102.407.13.547.142.12.01.255.01.368.009h13.265a1 1 0 0 0 0-2H5.938l-.125-2h12.353c.475 0 .888 0 1.23-.027.364-.028.725-.09 1.08-.256a3 3 0 0 0 1.286-1.152c.204-.334.306-.686.374-1.044.064-.338.11-.749.162-1.221l.003-.026.682-5.142.003-.022a2.467 2.467 0 0 0-.168-1.186 1.5 1.5 0 0 0-.66-.737 1.511 1.511 0 0 0-.613-.176C21.41 4 21.256 4 21.125 4h-16l-.082-1.312v-.022c-.008-.112-.016-.248-.033-.367a1.49 1.49 0 0 0-.176-.538 1.5 1.5 0 0 0-.65-.61 1.505 1.505 0 0 0-.547-.142C3.517 1 3.382 1 3.27 1H2a1 1 0 0 0 0 2Zm5.498 17a1.5 1.5 0 1 0 0 3 1.5 1.5 0 0 0 0-3Zm8.996 0a1.5 1.5 0 1 0 0 3 1.5 1.5 0 0 0 0-3Z" clip-rule="evenodd"></path></svg>