<svg xmlns="http://www.w3.org/2000/svg" fill="currentColor" viewBox="0 0 24 24"><path fill-rule="evenodd" d="M1 4a3 3 0 0 1 3-3h16a3 3 0 0 1 3 3v16a3 3 0 0 1-3 3H4a3 3 0 0 1-3-3V4Zm3-1a1 1 0 0 0-1 1v16a1 1 0 0 0 1 1h16a1 1 0 0 0 1-1V4a1 1 0 0 0-1-1H4Zm7.285 7.44v1.408c0 .048.024.077.072.088.112.021.248.032.408.032.378 0 .656-.07.832-.208.176-.144.264-.363.264-.656 0-.49-.4-.736-1.2-.736h-.312c-.043 0-.064.024-.064.072Zm0-2.288v1.176c0 .043.021.064.064.064h.2c.778 0 1.168-.232 1.168-.696 0-.443-.326-.664-.976-.664-.155 0-.286.01-.392.032-.043.01-.064.04-.064.088Zm-.888 4.784a.454.454 0 0 1-.32-.168.52.52 0 0 1-.128-.344V7.576a.5.5 0 0 1 .128-.344c.09-.101.2-.157.328-.168A11.9 11.9 0 0 1 11.629 7c1.546 0 2.32.499 2.32 1.496 0 .336-.11.621-.328.856-.214.235-.502.384-.864.448-.006 0-.008.005-.008.016 0 .005.005.008.016.008.421.059.754.219 1 .48.25.261.376.573.376.936 0 .592-.198 1.035-.592 1.328-.39.288-1.003.432-1.84.432-.422 0-.859-.021-1.312-.064ZM6.54 8.264l-.624 2.296c0 .016.005.032.016.048.01.01.024.016.04.016h1.152a.054.054 0 0 0 .04-.016c.016-.016.021-.032.016-.048l-.624-2.296c0-.005-.003-.008-.008-.008-.006 0-.008.003-.008.008ZM4.325 12.92a.306.306 0 0 1-.264-.136.31.31 0 0 1-.04-.296L5.7 7.512a.68.68 0 0 1 .232-.312.62.62 0 0 1 .368-.12h.528c.138 0 .261.04.368.12.112.08.189.184.232.312l1.688 4.976a.298.298 0 0 1-.048.296.306.306 0 0 1-.264.136h-.536a.608.608 0 0 1-.36-.12.626.626 0 0 1-.216-.32l-.2-.76c-.006-.043-.035-.064-.088-.064H5.693c-.048 0-.078.021-.088.064l-.2.76a.568.568 0 0 1-.216.32.585.585 0 0 1-.36.12h-.504ZM14 4.5a.5.5 0 0 0 0 1A1.5 1.5 0 0 1 15.5 7v6a1.5 1.5 0 0 1-1.5 1.5.5.5 0 0 0 0 1 2.5 2.5 0 0 0 2-1 2.51 2.51 0 0 0 1.043.81 2.5 2.5 0 0 0 .957.19.5.5 0 0 0 0-1 1.5 1.5 0 0 1-1.5-1.5V7A1.502 1.502 0 0 1 18 5.5a.5.5 0 0 0 0-1 2.5 2.5 0 0 0-2 1 2.502 2.502 0 0 0-2-1Z" clip-rule="evenodd"></path></svg>