<svg xmlns="http://www.w3.org/2000/svg" fill="currentColor" viewBox="0 0 24 24"><path fill-rule="evenodd" d="m10.17 8.38-.412.41c.095.228.221.51.377.82.41.819 1 1.792 1.753 2.544.752.753 1.726 1.344 2.544 1.753.311.156.592.282.82.377l.41-.411a2.21 2.21 0 0 1 3.125 0l2.607 2.607a2.21 2.21 0 0 1 0 3.124l-1.408 1.41c-1.008 1.006-2.557 1.299-3.862.631-2.077-1.062-5.956-3.2-8.24-5.486-2.286-2.285-4.424-6.163-5.487-8.241-.668-1.305-.375-2.854.632-3.861l1.409-1.41a2.21 2.21 0 0 1 3.124 0l2.607 2.608a2.209 2.209 0 0 1 0 3.124Z" clip-rule="evenodd"></path></svg>