<svg xmlns="http://www.w3.org/2000/svg" fill="currentColor" viewBox="0 0 24 24"><path fill-rule="evenodd" d="M12 2.5c.371 0 .709.215.864.55l2.461 5.304 5.836.687a.95.95 0 0 1 .792.647.942.942 0 0 1-.258.987l-4.315 3.966 1.146 5.729a.943.943 0 0 1-.375.95c-.3.216-.7.24-1.023.06L12 18.526 6.872 21.38a.956.956 0 0 1-1.024-.06.943.943 0 0 1-.373-.95l1.145-5.73-4.315-3.965a.942.942 0 0 1-.258-.987.95.95 0 0 1 .792-.647l5.836-.687 2.461-5.304A.952.952 0 0 1 12 2.5Zm0 7a1 1 0 0 1 1 1v1h1a1 1 0 1 1 0 2h-1v1a1 1 0 1 1-2 0v-1h-1a1 1 0 1 1 0-2h1v-1a1 1 0 0 1 1-1Z" clip-rule="evenodd"></path></svg>