<svg xmlns="http://www.w3.org/2000/svg" fill="currentColor" viewBox="0 0 24 24" class="w-32 h-32"><path fill-rule="evenodd" d="M5.615 2.549 2.113 9.553A1 1 0 0 0 3.007 11h7.004a1 1 0 0 0 .895-1.447L7.404 2.549a1 1 0 0 0-1.789 0ZM13 3a1 1 0 0 1 1-1h7a1 1 0 0 1 1 1v7a1 1 0 0 1-1 1h-7a1 1 0 0 1-1-1V3Zm-2 14.5a4.5 4.5 0 1 1-9 0 4.5 4.5 0 0 1 9 0Zm6.925-4.241a.478.478 0 0 0-.85 0l-1.124 2.116a.485.485 0 0 1-.333.25l-2.226.442c-.37.073-.52.532-.268.82l1.543 1.76a.505.505 0 0 1 .12.396l-.302 2.396c-.05.39.341.68.687.512l2.12-1.032a.474.474 0 0 1 .416 0l2.12 1.032c.346.169.737-.123.688-.512l-.303-2.396a.505.505 0 0 1 .12-.396l1.543-1.76c.251-.288.101-.747-.268-.82l-2.225-.443a.485.485 0 0 1-.333-.25l-1.125-2.115Z" clip-rule="evenodd"></path></svg>