<svg width="24" height="25" viewBox="0 0 24 25" fill="none" xmlns="http://www.w3.org/2000/svg">
<path d="M16.0014 6.5C16.0014 7.05228 15.5537 7.5 15.0014 7.5C14.4491 7.5 14.0014 7.05228 14.0014 6.5C14.0014 5.94772 14.4491 5.5 15.0014 5.5C15.5537 5.5 16.0014 5.94772 16.0014 6.5Z" fill="#A0A6B6"/>
<path d="M10.0303 5.71745L8.0811 8.72827C7.86573 9.06095 8.10452 9.5 8.50082 9.5H12.5508L12.5599 9.49992H14.7429C15.0351 9.49992 15.19 9.15452 14.9956 8.93633L13.1458 6.85987C13.0112 6.70877 12.775 6.70877 12.6404 6.85987L12.0357 7.53863L10.5803 5.69188C10.4367 5.50965 10.1564 5.52268 10.0303 5.71745Z" fill="#A0A6B6"/>
<path fill-rule="evenodd" clip-rule="evenodd" d="M3 4.5C3 2.84315 4.34315 1.5 6 1.5H18C19.6569 1.5 21 2.84315 21 4.5V20.5C21 22.1569 19.6569 23.5 18 23.5H6C4.34315 23.5 3 22.1569 3 20.5V4.5ZM5 14.5C5 13.9477 5.44772 13.5 6 13.5H8C8.55228 13.5 9 13.9477 9 14.5V16.5C9 17.0523 8.55228 17.5 8 17.5H6C5.44772 17.5 5 17.0523 5 16.5V14.5ZM11 14.5C11 13.9477 11.4477 13.5 12 13.5H18C18.5523 13.5 19 13.9477 19 14.5V16.5C19 17.0523 18.5523 17.5 18 17.5H12C11.4477 17.5 11 17.0523 11 16.5V14.5ZM5 20.5C5 19.9477 5.44772 19.5 6 19.5H18C18.5523 19.5 19 19.9477 19 20.5C19 21.0523 18.5523 21.5 18 21.5H6C5.44772 21.5 5 21.0523 5 20.5ZM5 4.5C5 3.94772 5.44772 3.5 6 3.5H18C18.5523 3.5 19 3.94772 19 4.5V10.5C19 11.0523 18.5523 11.5 18 11.5H6C5.44772 11.5 5 11.0523 5 10.5V4.5Z" fill="#A0A6B6"/>
</svg>
