<svg xmlns="http://www.w3.org/2000/svg" width="24" height="24" fill="currentColor" viewBox="0 0 24 24">
  <path fill-rule="evenodd" d="M17.959 6.04a3.714 3.714 0 0 1 0 5.253l-1.334 1.334a1 1 0 0 0 1.415 1.414l1.333-1.334a5.714 5.714 0 1 0-8.08-8.08L9.958 5.96a1 1 0 1 0 1.414 1.414l1.333-1.333a3.714 3.714 0 0 1 5.253 0Zm-10 10a1 1 0 0 1 0-1.414l6.667-6.667a1 1 0 1 1 1.414 1.414L9.374 16.04a1 1 0 0 1-1.415 0ZM6.04 12.707a3.714 3.714 0 0 0 5.252 5.252l1.334-1.333a1 1 0 1 1 1.414 1.414l-1.333 1.333a5.714 5.714 0 1 1-8.081-8.08l1.333-1.334a1 1 0 1 1 1.414 1.414L6.04 12.707Z" clip-rule="evenodd"/>
</svg>
