<svg xmlns="http://www.w3.org/2000/svg" width="16" height="16" viewBox="0 0 16 16">
  <path fill-rule="evenodd" d="M17.2527207,18.2907962 C17.6406651,17.9010867 18.2690523,17.8967937 18.6622562,18.2811666 C19.05546,18.6655394 19.0671761,19.2955597 18.6885366,19.6943651 L18.6885366,19.6943651 L16.708608,21.7306794 C16.0627292,22.3615866 15.8045383,23.2917273 16.0324603,24.1665222 C16.2603822,25.0413171 16.9392935,25.7259574 17.8103861,25.9594513 C18.6814787,26.1929451 19.6105145,25.9393103 20.2433353,25.295235 L20.2433353,25.295235 L22.2847606,23.2991375 C22.6827237,22.9190948 23.3116113,22.931101 23.6948598,23.326058 C24.0781083,23.721015 24.0728831,24.3517244 23.6831437,24.7402421 L23.6831437,24.7402421 L21.6537503,26.722934 C19.8828932,28.4456538 17.0604723,28.4225834 15.3178574,26.6711445 C13.5752425,24.9197056 13.5587407,22.0894778 15.2808135,20.3177266 L15.2808135,20.3177266 Z M23.9465102,16.6057092 C24.1983772,16.344465 24.5712193,16.239822 24.9217354,16.3319997 C25.2722515,16.4241774 25.5458937,16.6988309 25.6374881,17.0503976 C25.7290824,17.4019644 25.6243749,17.7757329 25.3636097,18.028046 L25.3636097,18.028046 L20.0160646,23.3902958 C19.8284134,23.5792368 19.5734401,23.685448 19.3075149,23.685448 C19.0415897,23.685448 18.7866164,23.5792368 18.5989652,23.3902958 C18.4107901,23.2017241 18.3050643,22.9458935 18.3050643,22.6791274 C18.3050643,22.4123613 18.4107901,22.1565307 18.5989652,21.967959 L18.5989652,21.967959 Z M22.3088246,13.2703899 C24.0973385,11.5729173 26.8982268,11.5770415 28.6817614,13.2797738 C30.4394129,15.0484979 30.4394129,17.9095542 28.6817614,19.6782783 L28.6817614,19.6782783 L26.7098542,21.7052088 C26.4609038,21.9674179 26.0905915,22.075168 25.7403395,21.9873092 C25.3900875,21.8994504 25.1139875,21.6295513 25.0174822,21.2806865 C24.9209769,20.9318217 25.0189701,20.5578686 25.2740383,20.3016399 L25.2740383,20.3016399 L27.2539669,18.2653255 C27.912136,17.6370847 28.1797024,16.7008677 27.9532804,15.8184226 C27.7268584,14.9359774 27.0419088,14.2455075 26.1630915,14.0138059 C25.2842743,13.7821042 24.3492247,14.0454586 23.7192396,14.7021105 L23.7192396,14.7021105 L21.6778143,16.6968675 C21.2798511,17.0769102 20.6509635,17.064904 20.267715,16.669947 C19.8844665,16.27499 19.8896918,15.6442806 20.2794312,15.2557628 L20.2794312,15.2557628 Z" transform="translate(-14 -12)"/>
</svg>
