<svg width="13" height="12" viewBox="0 0 13 12" fill="none" xmlns="http://www.w3.org/2000/svg">
<path d="M1.62685 7.53423C1.27663 7.53126 0.995132 7.81276 0.998101 8.16297L1.0249 11.3239L1.02489 11.3336C1.02786 11.6838 1.31417 11.9701 1.66439 11.9731L4.83499 12C5.18521 12.0029 5.46671 11.7214 5.46374 11.3712C5.46077 11.021 5.17446 10.7347 4.82424 10.7317L2.28784 10.7102L2.26634 8.17372C2.26337 7.82351 1.97706 7.5372 1.62685 7.53423Z" fill="white"/>
<path d="M1.95271 10.0607C1.68086 10.3326 1.68086 10.7733 1.95271 11.0452C2.22455 11.317 2.6653 11.317 2.93715 11.0452L6.21862 7.76369C6.49046 7.49184 6.49046 7.05109 6.21862 6.77924C5.94677 6.5074 5.50602 6.5074 5.23418 6.77924L1.95271 10.0607Z" fill="white"/>
<path d="M12.3692 4.46577C12.7194 4.46874 13.0009 4.18724 12.998 3.83703L12.9712 0.676085L12.9712 0.666396C12.9682 0.316181 12.6819 0.0298684 12.3317 0.0269L9.16109 2.32725e-05C8.81087 -0.0029458 8.52937 0.278553 8.53234 0.628769C8.53531 0.978984 8.82162 1.2653 9.17184 1.26827L11.7082 1.28977L11.7297 3.82628C11.7327 4.17649 12.019 4.4628 12.3692 4.46577Z" fill="white"/>
<path d="M12.0434 1.93929C12.3152 1.66744 12.3152 1.22669 12.0434 0.954846C11.7715 0.683 11.3308 0.683 11.0589 0.954846L7.77746 4.23631C7.50562 4.50816 7.50562 4.94891 7.77746 5.22076C8.04931 5.4926 8.49006 5.4926 8.7619 5.22076L12.0434 1.93929Z" fill="white"/>
</svg>
