<svg width="13" height="12" viewBox="0 0 13 12" fill="none" xmlns="http://www.w3.org/2000/svg">
<path d="M11.825 0C12.4675 0 12.9883 0.520803 12.9883 1.16325V3.48973C12.9883 3.76507 12.7651 3.98827 12.4897 3.98827C12.2144 3.98827 11.9912 3.76507 11.9912 3.48973V1.16325C11.9912 1.07147 11.9168 0.997067 11.825 0.997067H9.49855C9.22322 0.997067 9.00002 0.773866 9.00002 0.498533C9.00002 0.223201 9.22322 0 9.49855 0H11.825ZM1.48681 8.01173C1.76215 8.01173 1.98535 8.23493 1.98535 8.51027V10.8368C1.98535 10.9285 2.05975 11.0029 2.15153 11.0029H4.47801C4.75335 11.0029 4.97655 11.2261 4.97655 11.5015C4.97655 11.7768 4.75335 12 4.47801 12H2.15153C1.50908 12 0.988281 11.4792 0.988281 10.8368V8.51027C0.988281 8.23493 1.21148 8.01173 1.48681 8.01173Z" fill="white"/>
<path d="M1.91945 11.0689C1.70643 10.8559 1.70643 10.5106 1.91945 10.2976L4.00768 8.20932C4.22069 7.99631 4.56605 7.99631 4.77907 8.20932C4.99208 8.42233 4.99208 8.7677 4.77907 8.98071L2.69083 11.0689C2.47782 11.282 2.13246 11.282 1.91945 11.0689Z" fill="white"/>
<path d="M12.0571 0.93108C12.2701 1.14409 12.2701 1.48946 12.0571 1.70247L9.96891 3.7907C9.75589 4.00371 9.41053 4.00371 9.19752 3.7907C8.9845 3.57769 8.9845 3.23233 9.19752 3.01931L11.2857 0.93108C11.4988 0.718067 11.8441 0.718067 12.0571 0.93108Z" fill="white"/>
</svg>
