<svg width="12" height="12" viewBox="0 0 12 12" fill="none" xmlns="http://www.w3.org/2000/svg">
<path d="M2.83055 8.00392C3.47425 8.00392 3.99607 8.52575 3.99607 9.16945V11.5005C3.99607 11.7764 3.77243 12 3.49656 12C3.22069 12 2.99706 11.7764 2.99706 11.5005V9.16945C2.99706 9.07749 2.92251 9.00294 2.83055 9.00294H0.499509C0.223638 9.00294 0 8.7793 0 8.50343C0 8.22756 0.223638 8.00392 0.499509 8.00392H2.83055ZM8.5034 0C8.77927 0 9.00291 0.223638 9.00291 0.499509V2.83056C9.00291 2.92251 9.07745 2.99706 9.16941 2.99706H11.5005C11.7763 2.99706 12 3.2207 12 3.49657C12 3.77244 11.7763 3.99608 11.5005 3.99608H9.16941C8.52571 3.99608 8.00389 3.47426 8.00389 2.83056V0.499509C8.00389 0.223638 8.22753 0 8.5034 0Z" fill="white"/>
<path d="M8.93688 3.06319C8.72345 2.84976 8.72345 2.50373 8.93688 2.2903L11.0292 0.197975C11.2426 -0.0154554 11.5887 -0.0154554 11.8021 0.197975C12.0155 0.411405 12.0155 0.757445 11.8021 0.970875L9.70977 3.06319C9.49635 3.27663 9.15031 3.27663 8.93688 3.06319Z" fill="white"/>
<path d="M3.0631 8.93683C3.27653 9.15026 3.27653 9.49629 3.0631 9.70972L0.970785 11.802C0.757355 12.0155 0.411317 12.0155 0.197887 11.802C-0.0155431 11.5886 -0.0155431 11.2426 0.197887 11.0291L2.29021 8.93683C2.50364 8.7234 2.84967 8.7234 3.0631 8.93683Z" fill="white"/>
</svg>
