<svg width="13" height="12" viewBox="0 0 13 12" fill="none" xmlns="http://www.w3.org/2000/svg">
  <path d="M8.20271 0.958864C7.8525 0.955895 7.571 1.23739 7.57397 1.58761L7.60076 4.74854L7.60076 4.75823C7.60373 5.10845 7.89004 5.39476 8.24025 5.39773L11.4109 5.4246C11.7611 5.42757 12.0426 5.14607 12.0396 4.79586C12.0366 4.44564 11.7503 4.15933 11.4001 4.15636L8.86371 4.13486L8.84221 1.59836C8.83924 1.24814 8.55293 0.961833 8.20271 0.958864Z" fill="white"/>
  <path d="M8.52857 3.48534C8.25673 3.75719 8.25673 4.19794 8.52857 4.46978C8.80042 4.74163 9.24117 4.74163 9.51301 4.46978L12.7945 1.18832C12.9234 1.05942 12.9912 0.892548 12.9978 0.723712C13.0052 0.536477 12.9374 0.34683 12.7945 0.203884C12.5226 -0.0679613 12.0819 -0.0679613 11.81 0.203884L8.52857 3.48534Z" fill="white"/>
  <path d="M5.79337 11.0411C6.14358 11.0441 6.42508 10.7626 6.42211 10.4124L6.39532 7.25146L6.39532 7.24177C6.39235 6.89155 6.10604 6.60524 5.75583 6.60227L2.58523 6.5754C2.23502 6.57243 1.95352 6.85393 1.95649 7.20414C1.95946 7.55435 2.24577 7.84067 2.59598 7.84364L5.13237 7.86514L5.15387 10.4016C5.15684 10.7519 5.44315 11.0382 5.79337 11.0411Z" fill="white"/>
  <path d="M5.46751 8.51466C5.73935 8.24281 5.73935 7.80206 5.46751 7.53022C5.19566 7.25837 4.75492 7.25837 4.48307 7.53022L1.20161 10.8117C0.929765 11.0835 0.929765 11.5243 1.20161 11.7961C1.33916 11.9337 1.51996 12.0016 1.70024 12C1.87624 11.9984 2.05176 11.9304 2.18605 11.7961L5.46751 8.51466Z" fill="white"/>
</svg>
