<svg width="21" height="14" viewBox="0 0 21 14" fill="none" xmlns="http://www.w3.org/2000/svg">
<path fill-rule="evenodd" clip-rule="evenodd" d="M10.5 0C15.1843 0 18.6061 3.178 20.3399 5.25127C21.22 6.30382 21.22 7.69618 20.3399 8.74873C18.6061 10.822 15.1843 14 10.5 14C5.81572 14 2.39393 10.822 0.660095 8.74873C-0.220032 7.69618 -0.220032 6.30382 0.660095 5.25127C2.39393 3.178 5.81572 0 10.5 0ZM10.5 2.54545C7.81235 2.54545 5.63361 4.53982 5.63361 7C5.63361 9.46018 7.81235 11.4545 10.5 11.4545C13.1877 11.4545 15.3664 9.46018 15.3664 7C15.3664 4.53982 13.1877 2.54545 10.5 2.54545ZM10.428 5.09091C11.5807 5.09091 12.5137 5.94491 12.5137 7C12.5137 8.05509 11.5807 8.90909 10.428 8.90909C9.27539 8.90909 8.34241 8.05509 8.34241 7C8.34241 5.94491 9.27539 5.09091 10.428 5.09091Z"/>
</svg>
