<svg xmlns="http://www.w3.org/2000/svg" width="24" height="24" fill="currentColor" viewBox="0 0 24 24">
  <path fill="currentColor" fill-rule="evenodd" d="M12 4C9.277 4 7.031 5.239 5.33 6.698c-1.7 1.458-2.89 3.164-3.512 4.174-.43.697-.43 1.56 0 2.256.623 1.01 1.812 2.716 3.512 4.174C7.032 18.762 9.278 20 12 20c2.72 0 4.967-1.239 6.668-2.698 1.7-1.458 2.89-3.164 3.513-4.174a2.138 2.138 0 0 0 0-2.256c-.623-1.01-1.812-2.716-3.513-4.174C16.968 5.238 14.721 4 12 4Zm0 12a4 4 0 1 0 0-8 4 4 0 0 0 0 8Zm2-4a2 2 0 1 1-4 0 2 2 0 0 1 4 0Z" clip-rule="evenodd"/>
</svg>
