<svg xmlns="http://www.w3.org/2000/svg" width="9" height="12" viewBox="0 0 9 12">
  <path fill-rule="evenodd" d="M5.5,0 C6.32842712,-1.52179594e-16 7,0.671572875 7,1.5 L7,10.5 C7,11.3284271 6.32842712,12 5.5,12 C4.67157288,12 4,11.3284271 4,10.5 L4,1.5 C4,0.671572875 4.67157288,1.52179594e-16 5.5,0 Z M11.5,0 C12.3284271,-1.52179594e-16 13,0.671572875 13,1.5 L13,10.5 C13,11.3284271 12.3284271,12 11.5,12 C10.6715729,12 10,11.3284271 10,10.5 L10,1.5 C10,0.671572875 10.6715729,1.52179594e-16 11.5,0 Z" transform="translate(-4)"/>
</svg>
