<svg xmlns="http://www.w3.org/2000/svg" width="14" height="14" viewBox="0 0 14 14">
  <path fill-rule="evenodd" d="M568.582027,28.3914084 L571.608592,31.4179735 L568.760846,31.9875226 C568.719483,31.9964318 568.677482,32.00025 568.636118,32.00025 C568.468754,32.00025 568.30648,31.9340678 568.186206,31.8137942 C568.036024,31.6636115 567.970478,31.4478828 568.012478,31.2391541 L568.582027,28.3914084 Z M576.009075,20.5456302 L579.45437,23.9909253 L572.717781,30.7275145 L569.272486,27.2822194 L576.009075,20.5456302 Z M581.813386,20.7320859 C582.062206,20.9809057 582.062206,21.3830901 581.813386,21.6319099 L580.354194,23.0911012 L576.908899,19.6458061 L578.368091,18.1866148 C578.61691,17.9377951 579.019095,17.9377951 579.267915,18.1866148 L581.813386,20.7320859 Z" transform="translate(-568 -18)"/>
</svg>
