<svg xmlns="http://www.w3.org/2000/svg" width="24" height="24" fill="currentColor" viewBox="0 0 24 24">
  <path fill-rule="evenodd" d="M7 4a1 1 0 0 1 1-1h8a1 1 0 0 1 1 1v2H7V4ZM5 6V4a3 3 0 0 1 3-3h8a3 3 0 0 1 3 3v2h1a3 3 0 0 1 3 3v7.25A2.75 2.75 0 0 1 20.25 19H20c-.356 0-.694-.074-1-.208V20a3 3 0 0 1-3 3H8a3 3 0 0 1-3-3v-1.208A2.492 2.492 0 0 1 4 19h-.25A2.75 2.75 0 0 1 1 16.25V9a3 3 0 0 1 3-3h1Zm10 4a1 1 0 1 0 0 2h3a1 1 0 1 0 0-2h-3Zm-7 5a1 1 0 0 0-1 1v4a1 1 0 0 0 1 1h8a1 1 0 0 0 1-1v-4a1 1 0 0 0-1-1H8Z" clip-rule="evenodd"/>
</svg>
