<svg xmlns="http://www.w3.org/2000/svg" width="14" height="16" viewBox="0 0 14 16">
  <path d="M130.398601,7.69230769 C130.806442,7.69230769 131.137063,8.02292818 131.137063,8.43076923 L131.137063,19.2615385 C131.137063,19.6693795 130.806442,20 130.398601,20 L122.521678,20 C122.113837,20 121.783217,19.6693795 121.783217,19.2615385 L121.783217,8.43076923 C121.783217,8.02292818 122.113837,7.69230769 122.521678,7.69230769 L130.398601,7.69230769 Z M129.906294,8.92307692 L123.013986,8.92307692 L123.013986,18.7692308 L129.906294,18.7692308 L129.906294,8.92307692 Z M126.706294,4 C127.114135,4 127.444755,4.33062049 127.444755,4.73846154 L127.444755,6.09230769 C127.444755,6.43217523 127.169238,6.70769231 126.829371,6.70769231 C126.489503,6.70769231 126.213986,6.43217523 126.213986,6.09230769 L126.213986,5.23076923 L119.321678,5.23076923 L119.321678,15.0769231 L120.183217,15.0769231 C120.523084,15.0769231 120.798601,15.3524402 120.798601,15.6923077 C120.798601,16.0321752 120.523084,16.3076923 120.183217,16.3076923 L118.829371,16.3076923 C118.42153,16.3076923 118.090909,15.9770718 118.090909,15.5692308 L118.090909,4.73846154 C118.090909,4.33062049 118.42153,4 118.829371,4 L126.706294,4 Z" transform="matrix(-1 0 0 1 131.228 -4)"/>
</svg>
