<svg xmlns="http://www.w3.org/2000/svg" width="14" height="16" viewBox="0 0 14 16">
    <path fill-rule="nonzero" d="M11.394 5.36c.353 0 .653.253.718.618l.01.11v7.245a2.668 2.668 0 0 1-2.5 2.662L9.455 16H3.636a2.668 2.668 0 0 1-2.661-2.5l-.005-.167V6.087c0-.401.325-.727.727-.727.353 0 .653.253.718.618l.01.11v7.245a1.21 1.21 0 0 0 1.083 1.206l.128.006h5.819a1.21 1.21 0 0 0 1.205-1.083l.007-.129V6.087c0-.401.325-.727.727-.727zM8 6.374c.353 0 .653.253.718.618l.01.109v4.696a.727.727 0 0 1-.728.727.732.732 0 0 1-.718-.619l-.01-.108V7.1c0-.402.326-.727.728-.727zm-2.91 0c.403 0 .728.325.728.727v4.696a.727.727 0 0 1-1.454 0V7.1c0-.402.325-.727.727-.727zM8.486 0c.353 0 .653.253.718.618l.01.11v2.181h3.15c.402 0 .728.326.728.727a.732.732 0 0 1-.619.719l-.108.009H.727A.727.727 0 0 1 0 3.636c0-.353.253-.653.618-.718l.11-.009h3.15V.727c0-.353.254-.653.62-.718L4.605 0h3.879zM8 1.212H5.09V2.91H8V1.212z"/>
</svg>
