<svg width="24" height="25" viewBox="0 0 24 25" fill="none" xmlns="http://www.w3.org/2000/svg">
<path fill-rule="evenodd" clip-rule="evenodd" d="M2.87673 11.1895C1.70515 12.3611 1.70515 14.2606 2.87673 15.4322L4.29094 16.8464C5.46251 18.018 7.36201 18.018 8.53358 16.8464L15.2511 10.1289C16.4226 8.95734 16.4227 7.0579 15.2512 5.88632L16.0142 5.12332C16.1786 4.95889 16.4452 4.95889 16.6096 5.12332L19.1403 7.65402C19.5309 8.04454 19.5309 8.67771 19.1403 9.06823L15.6048 12.6038C14.9321 13.2765 14.6456 14.1893 14.7455 15.0664C14.1199 15.8516 14.1705 16.9984 14.8972 17.7251L18.5857 21.4136C19.3667 22.1947 20.6331 22.1947 21.4141 21.4136C22.1952 20.6326 22.1952 19.3662 21.4141 18.5852L17.7256 14.8967C17.4581 14.6292 17.1337 14.4533 16.7914 14.369C16.8401 14.2411 16.9159 14.1211 17.019 14.018L20.5545 10.4824C21.7261 9.31088 21.7261 7.41138 20.5545 6.23981L18.0238 3.70911C17.0784 2.76363 15.5454 2.76363 14.6 3.70911L13.837 4.47211C12.6654 3.30054 10.7658 3.30046 9.59424 4.47203L2.87673 11.1895Z" fill="#A0A6B6"/>
</svg>
