<svg xmlns="http://www.w3.org/2000/svg" width="24" height="24" fill="currentColor" viewBox="0 0 24 24">
  <path fill="white" fill-rule="evenodd" d="M17.467 2.293a1 1 0 0 0-1.414 0L11.81 6.536a1 1 0 0 0 0 1.414l4.243 4.242a1 1 0 0 0 1.414 0L21.71 7.95a1 1 0 0 0 0-1.414l-4.243-4.243ZM3 4a1 1 0 0 0-1 1v6a1 1 0 0 0 1 1h6a1 1 0 0 0 1-1V5a1 1 0 0 0-1-1H3Zm0 10a1 1 0 0 0-1 1v6a1 1 0 0 0 1 1h6a1 1 0 0 0 1-1v-6a1 1 0 0 0-1-1H3Zm9 1a1 1 0 0 1 1-1h6a1 1 0 0 1 1 1v6a1 1 0 0 1-1 1h-6a1 1 0 0 1-1-1v-6Z" clip-rule="evenodd"/>
</svg>
