<svg xmlns="http://www.w3.org/2000/svg" width="32" height="32" viewBox="0 0 32 32" fill="none">
<path fill-rule="evenodd" clip-rule="evenodd" d="M3.05715 3.05727C3.57785 2.53657 4.42207 2.53657 4.94277 3.05727L9.33333 7.44784L11.0572 5.72398C11.4385 5.34265 12.012 5.22857 12.5102 5.43495C13.0085 5.64132 13.3333 6.1275 13.3333 6.66679V12.0001C13.3333 12.7365 12.7364 13.3335 12 13.3335H6.66666C6.12738 13.3335 5.6412 13.0086 5.43483 12.5104C5.22845 12.0121 5.34253 11.4386 5.72386 11.0573L7.44771 9.33345L3.05715 4.94289C2.53645 4.42219 2.53645 3.57797 3.05715 3.05727ZM6.66666 18.6667C6.12738 18.6667 5.6412 18.9916 5.43483 19.4898C5.22845 19.9881 5.34253 20.5616 5.72386 20.9429L7.44769 22.6667L3.05715 27.0573C2.53645 27.578 2.53645 28.4222 3.05715 28.9429C3.57785 29.4636 4.42207 29.4636 4.94277 28.9429L9.33331 24.5523L11.0572 26.2762C11.4385 26.6576 12.012 26.7716 12.5102 26.5653C13.0085 26.3589 13.3333 25.8727 13.3333 25.3334V20.0001C13.3333 19.2637 12.7364 18.6667 12 18.6667H6.66666ZM25.3333 18.6667H20C19.2636 18.6667 18.6666 19.2637 18.6666 20.0001V25.3334C18.6666 25.8727 18.9915 26.3589 19.4897 26.5653C19.9879 26.7716 20.5614 26.6576 20.9428 26.2762L22.6666 24.5524L27.0571 28.9429C27.5778 29.4636 28.4221 29.4636 28.9428 28.9429C29.4635 28.4222 29.4635 27.578 28.9428 27.0573L24.5522 22.6667L26.2761 20.9429C26.6574 20.5616 26.7715 19.9881 26.5651 19.4898C26.3588 18.9916 25.8726 18.6667 25.3333 18.6667ZM19.4897 5.43495C19.9879 5.22857 20.5614 5.34265 20.9428 5.72398L22.6666 7.44782L27.0571 3.05727C27.5778 2.53657 28.4221 2.53657 28.9428 3.05727C29.4635 3.57797 29.4635 4.42219 28.9428 4.94289L24.5522 9.33343L26.2761 11.0573C26.6574 11.4386 26.7715 12.0121 26.5651 12.5104C26.3588 13.0086 25.8726 13.3335 25.3333 13.3335H20C19.2636 13.3335 18.6666 12.7365 18.6666 12.0001V6.66679C18.6666 6.1275 18.9915 5.64132 19.4897 5.43495Z" fill="black"/>
</svg>