<svg xmlns="http://www.w3.org/2000/svg" width="32" height="32" viewBox="0 0 32 32" fill="none">
<path fill-rule="evenodd" clip-rule="evenodd" d="M9.33329 2.66675H3.99996C3.26358 2.66675 2.66663 3.2637 2.66663 4.00008V9.33342C2.66663 9.8727 2.99148 10.3589 3.48971 10.5653C3.98795 10.7716 4.56144 10.6576 4.94277 10.2762L6.66663 8.55237L11.0572 12.9429C11.5778 13.4636 12.4221 13.4636 12.9428 12.9429C13.4635 12.4222 13.4635 11.578 12.9428 11.0573L8.55224 6.66675L10.2761 4.94289C10.6574 4.56156 10.7715 3.98807 10.5651 3.48984C10.3588 2.9916 9.87258 2.66675 9.33329 2.66675ZM22.6667 2.66675C22.1274 2.66675 21.6412 2.9916 21.4348 3.48984C21.2285 3.98807 21.3425 4.56156 21.7239 4.94289L23.4477 6.66673L19.0572 11.0573C18.5365 11.578 18.5365 12.4222 19.0572 12.9429C19.5779 13.4636 20.4221 13.4636 20.9428 12.9429L25.3333 8.55235L27.0572 10.2762C27.4385 10.6576 28.012 10.7716 28.5102 10.5653C29.0085 10.3589 29.3333 9.8727 29.3333 9.33342V4.00008C29.3333 3.2637 28.7364 2.66675 28 2.66675H22.6667ZM12.9428 20.9429C13.4635 20.4222 13.4635 19.578 12.9428 19.0573C12.4221 18.5366 11.5778 18.5366 11.0572 19.0573L6.66661 23.4478L4.94277 21.724C4.56144 21.3426 3.98795 21.2286 3.48971 21.4349C2.99148 21.6413 2.66663 22.1275 2.66663 22.6668V28.0001C2.66663 28.7365 3.26358 29.3335 3.99996 29.3335H9.33329C9.87258 29.3335 10.3588 29.0086 10.5651 28.5104C10.7715 28.0121 10.6574 27.4386 10.2761 27.0573L8.55222 25.3334L12.9428 20.9429ZM19.0572 19.0573C19.5779 18.5366 20.4221 18.5366 20.9428 19.0573L25.3333 23.4478L27.0572 21.724C27.4385 21.3426 28.012 21.2286 28.5102 21.4349C29.0085 21.6413 29.3333 22.1275 29.3333 22.6668V28.0001C29.3333 28.7365 28.7364 29.3335 28 29.3335H22.6667C22.1274 29.3335 21.6412 29.0086 21.4348 28.5104C21.2285 28.0121 21.3425 27.4386 21.7239 27.0573L23.4477 25.3335L19.0572 20.9429C18.5365 20.4222 18.5365 19.578 19.0572 19.0573Z" fill="black"/>
</svg>