<svg xmlns="http://www.w3.org/2000/svg" width="14" height="14" viewBox="0 0 14 14">
  <path fill-rule="evenodd" d="M239.127759,27 L244.766554,32.6387949 C245.077815,32.9500564 245.077815,33.4552924 244.766554,33.7665539 C244.455292,34.0778154 243.950056,34.0778154 243.638795,33.7665539 L238,28.127759 L232.361205,33.7665539 C232.049944,34.0778154 231.544708,34.0778154 231.233446,33.7665539 C230.922185,33.4552924 230.922185,32.9500564 231.233446,32.6387949 L236.872241,27 L231.233446,21.3612051 C230.922185,21.0499436 230.922185,20.5447076 231.233446,20.2334461 C231.544708,19.9221846 232.049944,19.9221846 232.361205,20.2334461 L238,25.872241 L243.638795,20.2334461 C243.950056,19.9221846 244.455292,19.9221846 244.766554,20.2334461 C245.077815,20.5447076 245.077815,21.0499436 244.766554,21.3612051 L239.127759,27 Z" transform="translate(-231 -20)"/>
</svg>
