<svg xmlns="http://www.w3.org/2000/svg" width="16" height="16" viewBox="0 0 16 16">
  <path fill-rule="evenodd" d="M20.2816719,19.3525849 C19.8114864,18.8823993 19.8114864,18.120078 20.2816719,17.6498924 L24.6600239,13.2715405 C24.7271932,13.2043711 24.7271932,13.095468 24.6600239,13.0282987 L22.7140897,11.0823645 C22.6469203,11.0151951 22.5380173,11.0151951 22.4708479,11.0823645 L21.4978808,12.0553316 L22.1059852,12.663436 C22.3746627,12.9321135 22.3746627,13.3677257 22.1059852,13.6364031 L15.2952155,20.4471728 C15.0265381,20.7158503 14.5909259,20.7158503 14.3222484,20.4471728 L12.3763142,18.5012386 C12.1076368,18.2325612 12.1076368,17.796949 12.3763142,17.5282715 L19.1870839,10.7175018 C19.4557614,10.4488244 19.8913736,10.4488244 20.160051,10.7175018 L20.7681555,11.3256063 L21.7411226,10.3526391 C22.2113081,9.88245362 22.9736295,9.88245362 23.443815,10.3526391 L25.3897492,12.2985734 C25.8599347,12.7687589 25.8599347,13.5310803 25.3897492,14.0012658 L21.0113972,18.3796178 C20.9442279,18.4467871 20.9442279,18.5556902 21.0113972,18.6228595 L22.9573314,20.5687937 L23.0789523,20.4471728 C23.3476298,20.1784954 23.783242,20.1784954 24.0519194,20.4471728 L27.4573043,23.8525577 C27.7259817,24.1212352 27.7259817,24.5568474 27.4573043,24.8255248 L26.4843372,25.7984919 C26.2156598,26.0671694 25.7800475,26.0671694 25.5113701,25.7984919 L22.1059852,22.3931071 C21.8373078,22.1244296 21.8373078,21.6888174 22.1059852,21.4201399 L22.2276061,21.2985191 L20.2816719,19.3525849 Z" transform="translate(-12 -10)"/>
</svg>
