<svg xmlns="http://www.w3.org/2000/svg" width="10" height="12" viewBox="0 0 10 12">
  <path d="M13.5279819,40.3712267 C13.9335787,40.3712267 14.2623799,40.7000278 14.2623799,41.1056246 L14.2623799,49.265602 C14.2623799,49.6711988 13.9335787,50 13.5279819,50 L7.73439797,50 C7.32880117,50 7,49.6711988 7,49.265602 L7,41.1056246 C7,40.7000278 7.32880117,40.3712267 7.73439797,40.3712267 L13.5279819,40.3712267 Z M15.9759751,38.0048332 C16.1735612,37.9820589 16.3719352,38.0403998 16.5257337,38.1665146 C16.6795323,38.2926294 16.7756016,38.475732 16.791987,38.6739514 L16.791987,38.6739514 L16.791987,46.8502487 C16.7932723,47.060022 16.7048016,47.2603378 16.5488753,47.4006714 C16.3929491,47.541005 16.1844531,47.6079593 15.9759751,47.5846467 L15.9759751,47.5846467 L15.0783776,47.5846467 L15.0783776,40.240667 C15.0783776,39.8350702 14.7495765,39.5062691 14.3439797,39.5062691 L14.3439797,39.5062691 L9.52959299,39.5062691 L9.52959299,38.7392312 C9.52959299,38.3336344 9.85839416,38.0048332 10.263991,38.0048332 L10.263991,38.0048332 Z" transform="translate(-7 -38)"/>
</svg>
