<svg width="20" height="20" viewBox="0 0 20 20" fill="none" xmlns="http://www.w3.org/2000/svg">
<path d="M18.0613 0C19.132 0 20 0.868005 20 1.93874V5.81622C20 6.27511 19.628 6.64711 19.1691 6.64711C18.7102 6.64711 18.3382 6.27511 18.3382 5.81622V1.93874C18.3382 1.78578 18.2142 1.66178 18.0613 1.66178H14.1838C13.7249 1.66178 13.3529 1.28978 13.3529 0.830889C13.3529 0.372002 13.7249 0 14.1838 0H18.0613ZM0.830889 13.3529C1.28978 13.3529 1.66178 13.7249 1.66178 14.1838V18.0613C1.66178 18.2142 1.78578 18.3382 1.93874 18.3382H5.81622C6.27511 18.3382 6.64711 18.7102 6.64711 19.1691C6.64711 19.628 6.27511 20 5.81622 20H1.93874C0.868005 20 0 19.132 0 18.0613V14.1838C0 13.7249 0.372002 13.3529 0.830889 13.3529Z"/>
<path d="M1.55194 18.4482C1.19692 18.0932 1.19692 17.5176 1.55194 17.1626L5.03233 13.6822C5.38735 13.3272 5.96296 13.3272 6.31798 13.6822C6.673 14.0372 6.673 14.6128 6.31798 14.9679L2.83759 18.4482C2.48257 18.8033 1.90697 18.8033 1.55194 18.4482Z"/>
<path d="M18.4481 1.5518C18.8031 1.90682 18.8031 2.48243 18.4481 2.83745L14.9677 6.31783C14.6127 6.67286 14.0371 6.67286 13.6821 6.31783C13.327 5.96281 13.327 5.38721 13.6821 5.03219L17.1625 1.5518C17.5175 1.19678 18.0931 1.19678 18.4481 1.5518Z"/>
</svg>
