<svg xmlns="http://www.w3.org/2000/svg" width="64" height="64" version="1.1">
  <g fill-rule="evenodd">
    <g transform="translate(-65.000000, -171.000000)">
      <path d="M95.2985584 179.545513C97.2019448 177.596782 98.8070393 175.419688 100.898361 173.919488 105.771554 170.423572 111.142994 170.105613 116.50897 172.759646 121.894067 175.422966 124.78575 179.931217 125.015752 185.923825 125.288367 193.018364 122.214758 198.864011 117.665534 204.04533 113.026712 209.328812 107.292515 213.294018 101.587273 217.290365 99.7997067 218.542535 98.0443736 219.842782 96.2333156 221.059441 95.9077076 221.27797 95.2275366 221.407995 94.9691262 221.221699 88.2624754 216.379646 81.1542778 212.051135 75.2731198 206.141022 70.9670086 201.814151 67.5688848 196.919651 66.3970238 190.782814 65.1956613 184.492461 66.3926532 178.898668 71.53573 174.637355 78.3194122 169.016793 88.2422615 170.187561 93.5874774 177.183763 94.2190259 178.010348 94.8096001 178.86862 95.2985584 179.545513"/>
    </g>
  </g>
</svg>
