<svg xmlns="http://www.w3.org/2000/svg" width="18" height="18" viewBox="0 0 18 18">
  <path d="M20.675683,12 C24.9148456,12 28.351366,15.4365203 28.351366,19.675683 C28.351366,21.5563848 27.6749737,23.2791068 26.5521824,24.6138555 L30.8053452,28.8654689 C31.0648849,29.1250086 31.0648849,29.5458056 30.8053452,29.8053452 C30.5717595,30.038931 30.2075554,30.0622895 29.947846,29.875421 L29.8654689,29.8053452 L25.6138555,25.5521824 C24.2791068,26.6749737 22.5563848,27.351366 20.675683,27.351366 C16.4365203,27.351366 13,23.9148456 13,19.675683 C13,15.4365203 16.4365203,12 20.675683,12 Z M20.675683,13.3291858 C17.1706094,13.3291858 14.3291858,16.1706094 14.3291858,19.675683 C14.3291858,23.1807566 17.1706094,26.0221801 20.675683,26.0221801 C24.1807566,26.0221801 27.0221801,23.1807566 27.0221801,19.675683 C27.0221801,16.1706094 24.1807566,13.3291858 20.675683,13.3291858 Z M20.675683,16.67406 C21.0427275,16.67406 21.3402759,16.9716084 21.3402759,17.338653 L21.3395456,19.0103598 L23.012713,19.0110901 C23.3463899,19.0110901 23.6226319,19.2569978 23.6701,19.5774743 L23.6773059,19.675683 C23.6773059,20.0427275 23.3797575,20.3402759 23.012713,20.3402759 L21.3395456,20.3395456 L21.3402759,22.012713 C21.3402759,22.3463899 21.0943681,22.6226319 20.7738917,22.6701 L20.675683,22.6773059 C20.3086385,22.6773059 20.0110901,22.3797575 20.0110901,22.012713 L20.0103598,20.3395456 L18.338653,20.3402759 C18.0049761,20.3402759 17.7287341,20.0943681 17.6812659,19.7738917 L17.67406,19.675683 C17.67406,19.3086385 17.9716084,19.0110901 18.338653,19.0110901 L20.0103598,19.0103598 L20.0110901,17.338653 C20.0110901,17.0049761 20.2569978,16.7287341 20.5774743,16.6812659 L20.675683,16.67406 Z" transform="translate(-13 -12)"/>
</svg>
