<svg xmlns="http://www.w3.org/2000/svg" width="18" height="18" viewBox="0 0 18 18">
  <path d="M20.675683,80 C24.9148456,80 28.351366,83.4365203 28.351366,87.675683 C28.351366,89.5563848 27.6749737,91.2791068 26.5521824,92.6138555 L30.8053452,96.8654689 C31.0648849,97.1250086 31.0648849,97.5458056 30.8053452,97.8053452 C30.5717595,98.038931 30.2075554,98.0622895 29.947846,97.875421 L29.8654689,97.8053452 L25.6138555,93.5521824 C24.2791068,94.6749737 22.5563848,95.351366 20.675683,95.351366 C16.4365203,95.351366 13,91.9148456 13,87.675683 C13,83.4365203 16.4365203,80 20.675683,80 Z M20.675683,81.3291858 C17.1706094,81.3291858 14.3291858,84.1706094 14.3291858,87.675683 C14.3291858,91.1807566 17.1706094,94.0221801 20.675683,94.0221801 C24.1807566,94.0221801 27.0221801,91.1807566 27.0221801,87.675683 C27.0221801,84.1706094 24.1807566,81.3291858 20.675683,81.3291858 Z M23.012713,87.0110901 C23.3797575,87.0110901 23.6773059,87.3086385 23.6773059,87.675683 C23.6773059,88.0427275 23.3797575,88.3402759 23.012713,88.3402759 L23.012713,88.3402759 L18.338653,88.3402759 C17.9716084,88.3402759 17.67406,88.0427275 17.67406,87.675683 C17.67406,87.3086385 17.9716084,87.0110901 18.338653,87.0110901 L18.338653,87.0110901 Z" transform="translate(-13 -80)"/>
</svg>
