<svg width="12" height="13" viewBox="0 0 12 13" fill="none" xmlns="http://www.w3.org/2000/svg">
  <path d="M11.3513 5.09557C10.374 4.85107 9.9105 3.73207 10.4288 2.86882C10.6703 2.46682 10.5975 2.12032 10.3583 1.88182L10.1258 1.64932C9.88725 1.41082 9.54075 1.33807 9.13875 1.57882C8.27475 2.09707 7.15575 1.63357 6.912 0.656318C6.79875 0.201068 6.50175 0.00756836 6.16425 0.00756836H5.83575C5.49825 0.00756836 5.202 0.201068 5.088 0.656318C4.8435 1.63357 3.7245 2.09707 2.86125 1.57882C2.45925 1.33732 2.112 1.41007 1.8735 1.64857L1.641 1.88107C1.4025 2.11957 1.32975 2.46682 1.57125 2.86882C2.0895 3.73282 1.626 4.85182 0.64875 5.09557C0.195 5.20882 0 5.50507 0 5.84332V6.17182C0 6.50932 0.1935 6.80557 0.64875 6.91957C1.626 7.16407 2.0895 8.28307 1.57125 9.14632C1.32975 9.54832 1.4025 9.89482 1.64175 10.1333L1.87425 10.3658C2.1135 10.6051 2.46075 10.6771 2.86125 10.4363C3.72525 9.91807 4.84425 10.3816 5.088 11.3588C5.20125 11.8141 5.49825 12.0076 5.83575 12.0076H6.16425C6.50175 12.0076 6.798 11.8141 6.912 11.3588C7.1565 10.3816 8.2755 9.91807 9.13875 10.4363C9.54 10.6771 9.8865 10.6051 10.1258 10.3658L10.3583 10.1333C10.5968 9.89482 10.6695 9.54832 10.4288 9.14632C9.9105 8.28232 10.374 7.16332 11.3513 6.91957C11.8065 6.80632 12 6.50932 12 6.17182V5.84332C12 5.50507 11.805 5.20882 11.3513 5.09557ZM6 8.25757C4.75725 8.25757 3.75 7.25032 3.75 6.00757C3.75 4.76482 4.75725 3.75757 6 3.75757C7.24275 3.75757 8.25 4.76482 8.25 6.00757C8.25 7.25032 7.24275 8.25757 6 8.25757Z" />
</svg>
