<svg width="11" height="13" viewBox="0 0 11 13" fill="none" xmlns="http://www.w3.org/2000/svg">
<mask id="path-1-outside-1" maskUnits="userSpaceOnUse" x="0" y="1.37122" width="11" height="12" fill="black">
<rect fill="white" y="1.37122" width="11" height="12"/>
<path fill-rule="evenodd" clip-rule="evenodd" d="M8.26238 6.21411C8.15442 6.32149 8.07257 6.4594 8.032 6.62156C7.9655 6.88713 7.79269 7 7.59581 7H7.40419C7.20731 7 7.03406 6.88713 6.968 6.62156C6.82581 6.0515 6.17306 5.78113 5.66906 6.08344C5.43544 6.22388 5.23287 6.18188 5.09331 6.04231L4.95769 5.90669C4.81813 5.76756 4.77569 5.56544 4.91656 5.33094C5.21887 4.82737 4.9485 4.17462 4.37844 4.032C4.11287 3.9655 4 3.79269 4 3.59581V3.40419C4 3.20687 4.11375 3.03406 4.37844 2.968C4.69518 2.889 4.9194 2.65237 5.00428 2.37122H6.82985C6.4452 2.60005 6.1875 3.0199 6.1875 3.5C6.1875 4.22494 6.77506 4.8125 7.5 4.8125C7.78431 4.8125 8.04749 4.72213 8.26238 4.56854V6.21411ZM8.26238 7.83858C8.04415 7.95285 7.81215 8 7.59581 8H7.40419C7.11039 8 6.78747 7.91305 6.50942 7.68889C6.35965 7.56815 6.24424 7.4249 6.15793 7.27113C6.08497 7.14114 5.9259 7.07522 5.78237 7.11548C5.613 7.16299 5.43053 7.1826 5.23972 7.16222C4.88495 7.12433 4.59469 6.9579 4.38621 6.74942L4.25169 6.6149C4.04342 6.40709 3.87585 6.11666 3.83768 5.76139C3.81712 5.57002 3.83684 5.38712 3.88451 5.21745C3.92482 5.07396 3.85897 4.91492 3.729 4.84197C3.57537 4.75573 3.43213 4.64042 3.31134 4.49069C3.08707 4.21271 3 3.88981 3 3.59581V3.40419C3 3.10881 3.08795 2.78579 3.31221 2.5083C3.35211 2.45893 3.39446 2.41329 3.43883 2.37122H1.7344C1.3288 2.37122 1 2.70002 1 3.10561V11.2656C1 11.6712 1.3288 12 1.7344 12H7.52798C7.93358 12 8.26238 11.6712 8.26238 11.2656V7.83858Z"/>
</mask>
<path fill-rule="evenodd" clip-rule="evenodd" d="M8.26238 6.21411C8.15442 6.32149 8.07257 6.4594 8.032 6.62156C7.9655 6.88713 7.79269 7 7.59581 7H7.40419C7.20731 7 7.03406 6.88713 6.968 6.62156C6.82581 6.0515 6.17306 5.78113 5.66906 6.08344C5.43544 6.22388 5.23287 6.18188 5.09331 6.04231L4.95769 5.90669C4.81813 5.76756 4.77569 5.56544 4.91656 5.33094C5.21887 4.82737 4.9485 4.17462 4.37844 4.032C4.11287 3.9655 4 3.79269 4 3.59581V3.40419C4 3.20687 4.11375 3.03406 4.37844 2.968C4.69518 2.889 4.9194 2.65237 5.00428 2.37122H6.82985C6.4452 2.60005 6.1875 3.0199 6.1875 3.5C6.1875 4.22494 6.77506 4.8125 7.5 4.8125C7.78431 4.8125 8.04749 4.72213 8.26238 4.56854V6.21411ZM8.26238 7.83858C8.04415 7.95285 7.81215 8 7.59581 8H7.40419C7.11039 8 6.78747 7.91305 6.50942 7.68889C6.35965 7.56815 6.24424 7.4249 6.15793 7.27113C6.08497 7.14114 5.9259 7.07522 5.78237 7.11548C5.613 7.16299 5.43053 7.1826 5.23972 7.16222C4.88495 7.12433 4.59469 6.9579 4.38621 6.74942L4.25169 6.6149C4.04342 6.40709 3.87585 6.11666 3.83768 5.76139C3.81712 5.57002 3.83684 5.38712 3.88451 5.21745C3.92482 5.07396 3.85897 4.91492 3.729 4.84197C3.57537 4.75573 3.43213 4.64042 3.31134 4.49069C3.08707 4.21271 3 3.88981 3 3.59581V3.40419C3 3.10881 3.08795 2.78579 3.31221 2.5083C3.35211 2.45893 3.39446 2.41329 3.43883 2.37122H1.7344C1.3288 2.37122 1 2.70002 1 3.10561V11.2656C1 11.6712 1.3288 12 1.7344 12H7.52798C7.93358 12 8.26238 11.6712 8.26238 11.2656V7.83858Z"/>
<path d="M8.032 6.62156L9.00205 6.86448L9.0021 6.86427L8.032 6.62156ZM8.26238 6.21411L8.96759 6.92311L9.26238 6.6299V6.21411H8.26238ZM6.968 6.62156L7.93842 6.38016L7.93827 6.37955L6.968 6.62156ZM5.66906 6.08344L5.15468 5.22588L5.15386 5.22637L5.66906 6.08344ZM5.09331 6.04231L4.3862 6.74942L4.38621 6.74942L5.09331 6.04231ZM4.95769 5.90669L5.6648 5.19958L5.66368 5.19847L4.95769 5.90669ZM4.91656 5.33094L5.77377 5.8459L5.77392 5.84565L4.91656 5.33094ZM4.37844 4.032L4.13553 5.00205L4.13573 5.0021L4.37844 4.032ZM4.37844 2.968L4.13643 1.99773L4.13628 1.99776L4.37844 2.968ZM5.00428 2.37122V1.37122H4.26158L4.04695 2.08222L5.00428 2.37122ZM6.82985 2.37122L7.34113 3.23063L10.4666 1.37122H6.82985V2.37122ZM8.26238 4.56854H9.26238V2.62468L7.68091 3.75497L8.26238 4.56854ZM8.26238 7.83858H9.26238V6.18616L7.7985 6.95268L8.26238 7.83858ZM6.50942 7.68889L5.8818 8.46741L5.8818 8.46741L6.50942 7.68889ZM6.15793 7.27113L7.02997 6.78169L7.02997 6.78169L6.15793 7.27113ZM5.78237 7.11548L5.51229 6.15264L5.51229 6.15264L5.78237 7.11548ZM5.23972 7.16222L5.34592 6.16788L5.34591 6.16787L5.23972 7.16222ZM4.38621 6.74942L3.6791 7.45652L3.6791 7.45653L4.38621 6.74942ZM4.25169 6.6149L4.9588 5.9078L4.95802 5.90702L4.25169 6.6149ZM3.83768 5.76139L4.83196 5.65458L4.83196 5.65458L3.83768 5.76139ZM3.88451 5.21745L4.84723 5.48794L4.84723 5.48794L3.88451 5.21745ZM3.729 4.84197L3.23953 5.71398L3.23953 5.71398L3.729 4.84197ZM3.31134 4.49069L4.08963 3.8628L4.08963 3.8628L3.31134 4.49069ZM3.31221 2.5083L2.53446 1.87973L2.53446 1.87973L3.31221 2.5083ZM3.43883 2.37122L4.12702 3.09674L5.94616 1.37122H3.43883V2.37122ZM9.0021 6.86427C9.00003 6.87256 8.99613 6.88301 8.98976 6.89414C8.98349 6.90508 8.97589 6.91486 8.96759 6.92311L7.55717 5.50511C7.32341 5.73761 7.14779 6.03558 7.0619 6.37885L9.0021 6.86427ZM7.59581 8C7.88981 8 8.2127 7.91293 8.49069 7.68867C8.76759 7.46528 8.92676 7.16514 9.00205 6.86448L7.06195 6.37865C7.07074 6.34355 7.11026 6.23263 7.2349 6.13207C7.36064 6.03063 7.49869 6 7.59581 6V8ZM7.40419 8H7.59581V6H7.40419V8ZM5.99758 6.86297C6.07265 7.16474 6.23217 7.46538 6.50942 7.68889C6.78747 7.91305 7.11039 8 7.40419 8V6C7.50111 6 7.63896 6.03052 7.76466 6.13185C7.88955 6.23253 7.92942 6.34395 7.93842 6.38016L5.99758 6.86297ZM6.18345 6.941C6.112 6.98385 6.01826 6.94589 5.99773 6.86357L7.93827 6.37955C7.63337 5.15711 6.23413 4.5784 5.15468 5.22588L6.18345 6.941ZM4.38621 6.74942C4.59469 6.9579 4.88495 7.12433 5.23972 7.16222C5.59329 7.19998 5.91821 7.10044 6.18427 6.94051L5.15386 5.22637C5.18629 5.20687 5.29312 5.15655 5.45211 5.17353C5.6123 5.19064 5.7315 5.26629 5.80042 5.33521L4.38621 6.74942ZM4.25058 6.61379L4.3862 6.74942L5.80042 5.33521L5.6648 5.19958L4.25058 6.61379ZM4.05935 4.81597C3.89956 5.08197 3.79963 5.40717 3.83768 5.76139C3.87588 6.11694 4.04319 6.40705 4.25169 6.6149L5.66368 5.19847C5.73262 5.2672 5.80894 5.38669 5.82624 5.54777C5.8434 5.70752 5.79269 5.81441 5.77377 5.8459L4.05935 4.81597ZM4.13573 5.0021C4.05487 4.98187 4.01556 4.88892 4.0592 4.81622L5.77392 5.84565C6.42219 4.76583 5.84214 3.36738 4.62115 3.0619L4.13573 5.0021ZM3 3.59581C3 3.88981 3.08707 4.21271 3.31134 4.49069C3.53472 4.76759 3.83487 4.92676 4.13553 5.00205L4.62135 3.06195C4.65645 3.07074 4.76737 3.11025 4.86793 3.2349C4.96937 3.36064 5 3.49869 5 3.59581H3ZM3 3.40419V3.59581H5V3.40419H3ZM4.13628 1.99776C3.83552 2.07283 3.53557 2.23193 3.31221 2.5083C3.08795 2.78579 3 3.10881 3 3.40419H5C5 3.50225 4.96893 3.64021 4.86771 3.76545C4.7674 3.88957 4.65667 3.92923 4.6206 3.93824L4.13628 1.99776ZM4.04695 2.08222C4.05223 2.06473 4.06212 2.04714 4.07823 2.03135C4.09603 2.01389 4.11787 2.00236 4.13643 1.99773L4.62045 3.93827C5.30025 3.76871 5.78143 3.25707 5.96161 2.66021L4.04695 2.08222ZM5.00428 3.37122H6.82985V1.37122H5.00428V3.37122ZM6.31856 1.5118C5.64341 1.91347 5.1875 2.65298 5.1875 3.5H7.1875C7.1875 3.38681 7.247 3.28663 7.34113 3.23063L6.31856 1.5118ZM5.1875 3.5C5.1875 4.77722 6.22278 5.8125 7.5 5.8125V3.8125C7.32735 3.8125 7.1875 3.67265 7.1875 3.5H5.1875ZM7.5 5.8125C7.99959 5.8125 8.4649 5.65295 8.84385 5.38211L7.68091 3.75497C7.63008 3.79131 7.56902 3.8125 7.5 3.8125V5.8125ZM7.26238 4.56854V6.21411H9.26238V4.56854H7.26238ZM7.7985 6.95268C7.73893 6.98388 7.66906 7 7.59581 7V9C7.95525 9 8.34937 8.92183 8.72626 8.72448L7.7985 6.95268ZM7.59581 7H7.40419V9H7.59581V7ZM7.40419 7C7.30473 7 7.21252 6.97122 7.13704 6.91037L5.8818 8.46741C6.36243 8.85487 6.91605 9 7.40419 9V7ZM7.13704 6.91037C7.09445 6.87603 7.05921 6.8338 7.02997 6.78169L5.28589 7.76057C5.42926 8.01601 5.62485 8.26026 5.8818 8.46741L7.13704 6.91037ZM7.02997 6.78169C6.73111 6.24922 6.1001 5.98776 5.51229 6.15264L6.05245 8.07832C5.7517 8.16268 5.43883 8.03306 5.2859 7.76058L7.02997 6.78169ZM5.51229 6.15264C5.45492 6.16873 5.40024 6.17368 5.34592 6.16788L5.13352 8.15656C5.46082 8.19152 5.77107 8.15724 6.05246 8.07832L5.51229 6.15264ZM5.34591 6.16787C5.24951 6.15758 5.16381 6.11281 5.09331 6.04231L3.6791 7.45653C4.02557 7.803 4.5204 8.09108 5.13352 8.15657L5.34591 6.16787ZM5.09332 6.04232L4.9588 5.9078L3.54458 7.32201L3.6791 7.45652L5.09332 6.04232ZM4.95802 5.90702C4.88724 5.8364 4.84225 5.7504 4.83196 5.65458L2.8434 5.8682C2.90944 6.48292 3.1996 6.97778 3.54537 7.32279L4.95802 5.90702ZM4.83196 5.65458C4.82612 5.60022 4.83107 5.54547 4.84723 5.48794L2.92179 4.94696C2.84261 5.22876 2.80813 5.53981 2.8434 5.8682L4.83196 5.65458ZM4.84723 5.48794C5.01238 4.90016 4.7511 4.26892 4.21848 3.96995L3.23953 5.71398C2.96684 5.56092 2.83727 5.24777 2.92179 4.94696L4.84723 5.48794ZM4.21848 3.96995C4.16627 3.94064 4.12399 3.90538 4.08963 3.8628L2.53304 5.11859C2.74028 5.37547 2.98448 5.57082 3.23953 5.71398L4.21848 3.96995ZM4.08963 3.8628C4.02878 3.78737 4 3.69527 4 3.59581H2C2 4.08434 2.14535 4.63804 2.53304 5.11859L4.08963 3.8628ZM4 3.59581V3.40419H2V3.59581H4ZM4 3.40419C4 3.30453 4.02899 3.21231 4.08996 3.13687L2.53446 1.87973C2.1469 2.35927 2 2.91309 2 3.40419H4ZM4.08996 3.13688C4.10172 3.12232 4.11408 3.10902 4.12702 3.09674L2.75063 1.64569C2.67485 1.71757 2.60251 1.79553 2.53446 1.87973L4.08996 3.13688ZM1.7344 3.37122H3.43883V1.37122H1.7344V3.37122ZM2 3.10561C2 3.2523 1.88109 3.37122 1.7344 3.37122V1.37122C0.776517 1.37122 0 2.14773 0 3.10561H2ZM2 11.2656V3.10561H0V11.2656H2ZM1.7344 11C1.88109 11 2 11.1189 2 11.2656H0C0 12.2235 0.776516 13 1.7344 13V11ZM7.52798 11H1.7344V13H7.52798V11ZM7.26238 11.2656C7.26238 11.1189 7.38129 11 7.52798 11V13C8.48586 13 9.26238 12.2235 9.26238 11.2656H7.26238ZM7.26238 7.83858V11.2656H9.26238V7.83858H7.26238Z" fill="white" mask="url(#path-1-outside-1)"/>
<path d="M10.6216 2.968C10.0515 2.82538 9.78113 2.17263 10.0834 1.66906C10.2243 1.43456 10.1819 1.23244 10.0423 1.09331L9.90669 0.957687C9.76756 0.818562 9.56544 0.776125 9.33094 0.916563C8.82694 1.21888 8.17419 0.9485 8.032 0.378438C7.96594 0.112875 7.79269 0 7.59581 0H7.40419C7.20731 0 7.0345 0.112875 6.968 0.378438C6.82537 0.9485 6.17263 1.21888 5.66906 0.916563C5.43456 0.775688 5.232 0.818125 5.09288 0.95725L4.95725 1.09288C4.81813 1.232 4.77569 1.43456 4.91656 1.66906C5.21888 2.17306 4.9485 2.82581 4.37844 2.968C4.11375 3.03406 4 3.20687 4 3.40419V3.59581C4 3.79269 4.11288 3.9655 4.37844 4.032C4.9485 4.17462 5.21888 4.82737 4.91656 5.33094C4.77569 5.56544 4.81813 5.76756 4.95769 5.90669L5.09331 6.04231C5.23288 6.18188 5.43544 6.22388 5.66906 6.08344C6.17306 5.78113 6.82581 6.0515 6.968 6.62156C7.03406 6.88713 7.20731 7 7.40419 7H7.59581C7.79269 7 7.9655 6.88713 8.032 6.62156C8.17463 6.0515 8.82737 5.78113 9.33094 6.08344C9.565 6.22388 9.76713 6.18188 9.90669 6.04231L10.0423 5.90669C10.1814 5.76756 10.2239 5.56544 10.0834 5.33094C9.78113 4.82694 10.0515 4.17419 10.6216 4.032C10.8871 3.96594 11 3.79269 11 3.59581V3.40419C11 3.20687 10.8863 3.03406 10.6216 2.968ZM7.5 4.8125C6.77506 4.8125 6.1875 4.22494 6.1875 3.5C6.1875 2.77506 6.77506 2.1875 7.5 2.1875C8.22494 2.1875 8.8125 2.77506 8.8125 3.5C8.8125 4.22494 8.22494 4.8125 7.5 4.8125Z"/>
</svg>
