<svg xmlns="http://www.w3.org/2000/svg" width="12" height="12" viewBox="0 0 12 12">
  <path d="M14.28,17.28 L14.28,12.72 C14.28,12.322355 14.602355,12 15,12 C15.397645,12 15.72,12.322355 15.72,12.72 L15.72,17.28 L20.28,17.28 C20.677645,17.28 21,17.602355 21,18 C21,18.397645 20.677645,18.72 20.28,18.72 L15.719088,18.72 L15.72,23.28 C15.72,23.677645 15.397645,24 15,24 C14.602355,24 14.28,23.677645 14.28,23.280048 L14.279088,18.72 L9.72,18.72 C9.32235498,18.72 9,18.397645 9,18 C9,17.602355 9.32235498,17.28 9.72,17.28 L14.28,17.28 Z" transform="rotate(90 16.5 7.5)"/>
</svg>
