<svg xmlns="http://www.w3.org/2000/svg" width="33" height="36" viewBox="0 0 33 36">
  <path d="M21.8828133,0.839745962 C12.8873811,0.839745962 5.59514247,8.00310665 5.59514247,16.8395578 L0.179491924,16.8395578 L7.22390956,23.7594756 L7.34606709,24.0194725 L14.675519,16.8395578 L9.19878964,16.8395578 C9.19257786,10.9058047 13.4535383,5.79377201 19.3765222,4.62895341 C25.2995062,3.4641348 31.2354518,6.57083607 33.5551255,12.0496219 C35.8747992,17.5284078 33.9323634,23.8538888 28.9154222,27.1586697 C23.8984809,30.4634506 17.2038381,29.8274228 12.9245943,25.6394533 L10.3592862,28.1394236 C15.568071,33.2685564 23.6353895,34.3193824 30.0249671,30.7010194 C36.4145446,27.0826564 39.5316098,19.6982099 37.6234287,12.6999736 C35.7152475,5.70173727 29.258082,0.836397503 21.8828133,0.839745962 Z" transform="scale(1 -1) rotate(-60 -12.216 3.54)"/>
</svg>
