<svg width="25" height="25" viewBox="0 0 25 25" fill="none" xmlns="http://www.w3.org/2000/svg">
<path d="M0.533584 12.4586L12.4755 0.51672C13.0726 -0.0803738 13.8687 -0.0803738 14.4658 0.51672L15.4609 1.51188L16.4561 0.51672C17.0532 -0.0803736 17.8493 -0.0803734 18.4464 0.516721L24.4173 6.48766C25.0144 7.08476 25.0144 7.88088 24.4173 8.47798L18.4464 14.4489L24.6994 20.7019C25.0899 21.0925 25.0899 21.7256 24.6994 22.1161L22.133 24.6826C21.7425 25.0731 21.1093 25.0731 20.7188 24.6826L13.4706 17.4344C12.8735 16.8373 12.8735 16.0412 13.4706 15.4441L22.1974 6.71731L19.2059 3.72586L18.4464 4.49735C19.0435 5.09444 19.0435 5.89057 18.4464 6.48766L6.50452 18.4295C5.90743 19.0266 5.11131 19.0266 4.51421 18.4295L0.533584 14.4489C-0.0635097 13.8518 -0.0635106 13.0557 0.533584 12.4586Z" fill="#0099FF"/>
</svg>
