<svg xmlns="http://www.w3.org/2000/svg" width="14" height="14" viewBox="0 0 14 14">
  <path d="M18.243125,17.936 C17.103,17.65075 16.56225,16.34525 17.166875,15.338125 C17.448625,14.869125 17.36375,14.464875 17.084625,14.186625 L16.813375,13.915375 C16.535125,13.637125 16.130875,13.55225 15.661875,13.833125 C14.653875,14.43775 13.348375,13.897 13.064,12.756875 C12.931875,12.22575 12.585375,12 12.191625,12 L11.808375,12 C11.414625,12 11.069,12.22575 10.936,12.756875 C10.65075,13.897 9.34525,14.43775 8.338125,13.833125 C7.869125,13.551375 7.464,13.63625 7.18575,13.9145 L6.9145,14.18575 C6.63625,14.464 6.551375,14.869125 6.833125,15.338125 C7.43775,16.346125 6.897,17.651625 5.756875,17.936 C5.2275,18.068125 5,18.41375 5,18.808375 L5,19.191625 C5,19.585375 5.22575,19.931 5.756875,20.064 C6.897,20.34925 7.43775,21.65475 6.833125,22.661875 C6.551375,23.130875 6.63625,23.535125 6.915375,23.813375 L7.186625,24.084625 C7.46575,24.36375 7.870875,24.44775 8.338125,24.166875 C9.346125,23.56225 10.651625,24.103 10.936,25.243125 C11.068125,25.77425 11.414625,26 11.808375,26 L12.191625,26 C12.585375,26 12.931,25.77425 13.064,25.243125 C13.34925,24.103 14.65475,23.56225 15.661875,24.166875 C16.13,24.44775 16.53425,24.36375 16.813375,24.084625 L17.084625,23.813375 C17.362875,23.535125 17.44775,23.130875 17.166875,22.661875 C16.56225,21.653875 17.103,20.348375 18.243125,20.064 C18.77425,19.931875 19,19.585375 19,19.191625 L19,18.808375 C19,18.41375 18.7725,18.068125 18.243125,17.936 Z M12,21.625 C10.550125,21.625 9.375,20.449875 9.375,19 C9.375,17.550125 10.550125,16.375 12,16.375 C13.449875,16.375 14.625,17.550125 14.625,19 C14.625,20.449875 13.449875,21.625 12,21.625 Z" transform="translate(-5 -12)"/>
</svg>
