<svg width="24" height="24" viewBox="0 0 24 24" fill="none" xmlns="http://www.w3.org/2000/svg">
<path d="M9.72929 0.472237C11.1777 -0.157413 12.8221 -0.157412 14.2705 0.472237L23.4283 4.45334C24.1903 4.78462 24.1903 5.86638 23.4283 6.19766L14.2705 10.1788C12.8221 10.8084 11.1777 10.8084 9.72929 10.1788L0.571534 6.19766C-0.190512 5.86638 -0.190511 4.78462 0.571536 4.45334L9.72929 0.472237Z" fill="white"/>
<path opacity="0.6" d="M4.44049 9.44531L0.571535 11.1272C-0.190511 11.4585 -0.190512 12.5403 0.571534 12.8716L9.72929 16.8527C11.1777 17.4823 12.8221 17.4823 14.2705 16.8527L23.4283 12.8716C24.1903 12.5403 24.1903 11.4585 23.4283 11.1272L19.5593 9.44531L14.758 11.5326C12.9987 12.2974 11.0011 12.2974 9.24179 11.5326L4.44049 9.44531Z" fill="white"/>
<path opacity="0.3" d="M4.44039 16.1206L0.571536 17.8025C-0.190511 18.1338 -0.190512 19.2155 0.571534 19.5468L9.72929 23.5279C11.1777 24.1576 12.8221 24.1576 14.2705 23.5279L23.4283 19.5468C24.1903 19.2155 24.1903 18.1338 23.4283 17.8025L19.56 16.1209L14.7586 18.2082C12.9993 18.973 11.0017 18.973 9.24238 18.2081L4.44039 16.1206Z" fill="white"/>
</svg>
