<svg width="16" height="16" viewBox="0 0 16 16" fill="none" xmlns="http://www.w3.org/2000/svg">
<path d="M6.4862 0.314824C7.45179 -0.104942 8.54808 -0.104941 9.51367 0.314825L15.6188 2.96889C16.1269 3.18975 16.1269 3.91092 15.6188 4.13177L9.51367 6.78584C8.54808 7.20561 7.45178 7.20561 6.48619 6.78584L0.381023 4.13178C-0.127008 3.91092 -0.127007 3.18975 0.381024 2.96889L6.4862 0.314824Z"/>
<path opacity="0.6" d="M2.96032 6.297L0.381024 7.41828C-0.127007 7.63914 -0.127008 8.36031 0.381023 8.58117L6.48619 11.2352C7.45179 11.655 8.54808 11.655 9.51367 11.2352L15.6188 8.58116C16.1269 8.36031 16.1269 7.63914 15.6188 7.41828L13.0395 6.297L9.83868 7.68849C8.66577 8.19838 7.3341 8.19838 6.16119 7.68849L2.96032 6.297Z"/>
<path opacity="0.3" d="M2.96026 10.7471L0.381024 11.8683C-0.127007 12.0892 -0.127008 12.8104 0.381023 13.0312L6.48619 15.6853C7.45179 16.105 8.54808 16.105 9.51367 15.6853L15.6188 13.0312C16.1269 12.8104 16.1269 12.0892 15.6188 11.8683L13.04 10.7472L9.83908 12.1388C8.66617 12.6487 7.33449 12.6487 6.16159 12.1388L2.96026 10.7471Z"/>
</svg>
