<svg xmlns="http://www.w3.org/2000/svg" width="24" height="24" fill="currentColor" viewBox="0 0 24 24">
  <path fill="white" fill-rule="evenodd" d="M13.632 1.486a3 3 0 0 0-3.264 0L2.91 6.321a2 2 0 0 0 0 3.357l7.458 4.835a3 3 0 0 0 3.264 0l7.458-4.835a2 2 0 0 0 0-3.357l-7.458-4.835Zm8.188 10.481a1 1 0 0 1-.247 1.393l-.079.054-.004.003-6.604 4.668a5 5 0 0 1-5.772 0l-6.607-4.67-.08-.056a1 1 0 0 1 1.147-1.638l.086.06 6.608 4.67a3 3 0 0 0 3.463 0l6.61-4.67.004-.003.082-.058a1 1 0 0 1 1.393.247Zm-.247 5.393a1 1 0 0 0-1.146-1.64l-.082.058-.005.003-6.609 4.67a3 3 0 0 1-3.463 0l-6.608-4.67-.086-.06a1 1 0 1 0-1.148 1.638l.081.057 6.607 4.669a5 5 0 0 0 5.772 0l6.604-4.668.005-.003.078-.054Z" clip-rule="evenodd"/>
</svg>
