<svg xmlns="http://www.w3.org/2000/svg" viewBox="0 0 30 29">
  <path d="M14.5346589 24.744644l-7.73353604 4.065761c-.48884458.257001-1.09347174.069054-1.35047255-.419791-.10233907-.19466-.13765374-.417628-.1004769-.634386l1.47697395-8.611419c.05563794-.3243937-.05191054-.6553939-.28759663-.885131L.28298867 12.1610373C-.1124949 11.775536-.12058721 11.1424228.264914 10.7469392c.15350861-.1574836.35465102-.2599708.57228805-.2915953L9.4835582 9.1989548c.3257101-.0473285.6072757-.2518978.7529377-.5470413l3.866768-7.8349277c.2444223-.4952537.8440482-.6985927 1.3393018-.4541704.1972126.0973302.3568401.2569577.4541704.4541704l3.866768 7.8349277c.145662.2951435.4272276.4997128.7529377.5470413l8.6463562 1.2563891c.5465448.0794176.9252263.5868605.8458087 1.1334053-.0316246.217637-.1341117.4187795-.2915954.5722881l-6.256562 6.0986407c-.2356861.2297371-.3432346.5607373-.2875967.885131l1.476974 8.611419c.093361.544337-.2722268 1.061293-.8165633 1.154654-.2167576.037177-.4397257.001862-.6343862-.100477l-7.733536-4.065761c-.291324-.153158-.6393582-.153158-.9306822 0z"/>
</svg>
