<svg xmlns="http://www.w3.org/2000/svg" width="13" height="17" viewBox="0 0 13 17">
  <path d="M17.9495374,64 L17.9495374,75.2068966 C17.9495374,76.2455845 17.2279226,77 16.2439024,77 L9.70563499,77 C8.7216148,77 8,76.234651 8,75.2068966 L8,64 L17.9495374,64 Z M15.4457527,66.5912532 L14.0353238,66.5912532 C13.8057191,66.5912532 13.8057191,66.5912532 13.8057191,66.842725 L13.8057191,74.3868797 L15.4457527,74.3868797 L15.4457527,66.5912532 Z M11.8967199,66.5912532 L10.486291,66.5912532 L10.486291,74.3868797 L12.1263246,74.3868797 L12.1260097,66.7678699 C12.1241199,66.6354073 12.1108917,66.6022917 12.0182939,66.5940128 L11.9650659,66.5915981 Z M14.5754803,60 C14.652333,60 14.7511436,60.0442804 14.8170174,60.1107011 C15.0365965,60.3542435 15.2342177,60.6199262 15.4647758,60.8523985 C15.5306496,60.9298893 15.6514181,60.99631 15.7612077,60.99631 L19,60.99631 L19,63 L7,63 L7,61.0073801 L10.2497713,60.99631 C10.3485819,60.99631 10.4693504,60.9298893 10.5462031,60.8523985 C10.7657823,60.6199262 10.9634035,60.3542435 11.1829826,60.1217712 C11.2488564,60.0442804 11.347667,60 11.4354986,60 L14.5754803,60 Z" transform="translate(-6.416 -60)"/>
</svg>
