<svg xmlns="http://www.w3.org/2000/svg" width="283" height="361" viewBox="0 0 283 361">
  <g fill="none" fill-rule="evenodd" transform="rotate(90 180.5 180.5)">
    <rect width="360" height="360"/>
    <polygon fill="#F2F3F7" points=".03 359.254 360.03 359.254 360.03 360.254 .03 360.254"/>
    <path fill="#F1F2F7" d="M8.88028169 78L52.8802817 78C54.5371359 78 55.8802817 79.3431458 55.8802817 81L55.8802817 359.003534 55.8802817 359.003534 5.88028169 359.003534 5.88028169 81C5.88028169 79.3431458 7.22342744 78 8.88028169 78zM83 177.003534L127 177.003534C128.656854 177.003534 130 178.346679 130 180.003534L130 359.003534 130 359.003534 80 359.003534 80 180.003534C80 178.346679 81.3431458 177.003534 83 177.003534zM158 270L202 270C203.656854 270 205 271.343146 205 273L205 360 205 360 155 360 155 273C155 271.343146 156.343146 270 158 270zM233 199.003534L277 199.003534C278.656854 199.003534 280 200.346679 280 202.003534L280 359.003534 280 359.003534 230 359.003534 230 202.003534C230 200.346679 231.343146 199.003534 233 199.003534zM306.880282 149.003534L350.880282 149.003534C352.537136 149.003534 353.880282 150.346679 353.880282 152.003534L353.880282 359.003534 353.880282 359.003534 303.880282 359.003534 303.880282 152.003534C303.880282 150.346679 305.223427 149.003534 306.880282 149.003534z"/>
  </g>
</svg>
