<svg xmlns="http://www.w3.org/2000/svg" width="160" height="160" viewBox="0 0 160 160">
  <path fill="#F1F2F7" fill-rule="evenodd" d="M122.01854,107.111644 L147.553029,122.874374 C133.358687,145.192377 108.408596,160 80,160 C51.5914035,160 26.6413128,145.192377 12.4469711,122.874374 L37.9814601,107.111644 C46.8864298,120.884466 62.3786915,130 80,130 C97.6213085,130 113.11357,120.884466 122.01854,107.111644 Z M78.9999701,0.00612708608 L78.9999701,30.0098013 C51.847326,30.5424792 30,52.7198814 30,80 C30,89.2779685 32.5270368,97.965716 36.9303695,105.412501 L11.3955635,121.174732 C4.16083054,109.146254 0,95.059034 0,80 C0,36.5896673 34.5757833,1.2549414 77.6904759,0.0326964474 L78.9999701,0.00612708608 Z M81.0010306,30.009821 L81,0.008 L80,0 C124.18278,0 160,35.81722 160,80 C160,95.0586149 155.839401,109.14547 148.605041,121.173727 L123.070222,105.411502 C127.473189,97.9649383 130,89.2775533 130,80 C130,52.7202165 108.153211,30.543024 81.0010306,30.009821 Z" transform="matrix(-1 0 0 1 160 0)"/>
</svg>
