<svg xmlns="http://www.w3.org/2000/svg" width="283" height="206" viewBox="0 0 283 206">
  <path fill="#F1F2F7" fill-rule="evenodd" d="M84 62L118 62C119.656854 62 121 63.3431458 121 65L121 205 121 205 81 205 81 65C81 63.3431458 82.3431458 62 84 62zM164 122L198 122C199.656854 122 201 123.343146 201 125L201 205 201 205 161 205 161 125C161 123.343146 162.343146 122 164 122zM245 20L279 20C280.656854 20 282 21.3431458 282 23L282 205 282 205 242 205 242 23C242 21.3431458 243.343146 20 245 20zM3 0L37 0C38.6568542-3.04359188e-16 40 1.34314575 40 3L40 205 40 205 1.13686838e-13 205 1.13686838e-13 3C1.13483932e-13 1.34314575 1.34314575 3.04359188e-16 3 0z" transform="translate(.5 .5)"/>
</svg>
