<svg xmlns="http://www.w3.org/2000/svg" xmlns:xlink="http://www.w3.org/1999/xlink" width="160" height="160" viewBox="0 0 160 160">
  <defs>
    <path id="pie-a" d="M79.9998844,83.529 L134.894511,138.19473 C120.56846,151.713253 101.251967,160 80,160 C58.7505181,160 39.436057,151.715191 25.1105147,138.199472 L79.9998844,83.529 Z M158.718101,65.6585664 C159.560252,70.3114388 160,75.1043651 160,80 C160,102.211062 150.948419,122.308014 136.332782,136.80333 L81.9998844,82.698 Z M5.2956636,51.3170163 L78.2408844,82.455 L23.592505,136.729136 C9.0207408,122.239476 0,102.173191 0,80 C0,69.8915384 1.87480427,60.2209607 5.2956636,51.3170163 Z M81.0001873,0.00612409532 C119.150361,0.473536137 150.871585,27.6449407 158.336826,63.693305 L80.9998844,80.871 Z M78.999,0.008 L79,80.604 L6.0367718,49.4582957 C18.037802,20.4272663 46.6333791,0 80,0 L78.999,0.008 Z"/>
  </defs>
  <use fill="#F1F2F7" fill-rule="evenodd" transform="matrix(-1 0 0 1 160 0)" xlink:href="#pie-a"/>
</svg>
