<svg xmlns="http://www.w3.org/2000/svg" width="17" height="13" viewBox="0 0 17 13">
  <path d="M10.6335157,12.1079932 L6.20995996,8.10129055 L2.87309256,12.9805351 C2.99383459,13.1994935 3.06254075,13.4511695 3.06254075,13.7188926 C3.06254075,14.5645899 2.37696765,15.250163 1.53127037,15.250163 C0.685573099,15.250163 0,14.5645899 0,13.7188926 C0,12.8731953 0.685573099,12.1876223 1.53127037,12.1876223 C1.73576275,12.1876223 1.93089285,12.2277069 2.10923191,12.3004474 L6.02707172,6.55782347 L10.4354088,10.5460675 L13.6451858,5.53015476 C13.414204,5.26201073 13.2745614,4.91294818 13.2745614,4.53127038 C13.2745614,3.6855731 13.9601345,3 14.8058318,3 C15.6515291,3 16.3371022,3.6855731 16.3371022,4.53127038 C16.3371022,5.37696765 15.6515291,6.06254075 14.8058318,6.06254075 C14.7118655,6.06254075 14.6198759,6.05407688 14.530584,6.03786993 L10.6335157,12.1079932 Z M1.53127038,13.2084692 C1.24937128,13.2084692 1.02084692,13.4369935 1.02084692,13.7188926 C1.02084692,14.0007917 1.24937128,14.2293161 1.53127038,14.2293161 C1.81316947,14.2293161 2.04169383,14.0007917 2.04169383,13.7188926 C2.04169383,13.4369935 1.81316947,13.2084692 1.53127038,13.2084692 Z M14.8058318,4.02084692 C14.5239327,4.02084692 14.2954084,4.24937128 14.2954084,4.53127038 C14.2954084,4.81316947 14.5239327,5.04169383 14.8058318,5.04169383 C15.0877309,5.04169383 15.3162553,4.81316947 15.3162553,4.53127038 C15.3162553,4.24937128 15.0877309,4.02084692 14.8058318,4.02084692 Z" transform="translate(0 -3)"/>
</svg>
