<svg width="14" height="14" viewBox="0 0 14 14" fill="none" xmlns="http://www.w3.org/2000/svg">
<path d="M0 0.5C0 0.223858 0.223858 0 0.5 0H7.49938C7.77552 0 7.99938 0.223858 7.99938 0.5V1.49984C7.99938 1.77599 7.77552 1.99984 7.49938 1.99984H0.5C0.223858 1.99984 0 1.77599 0 1.49984V0.5Z" fill="#8483A9"/>
<path d="M9.99941 0.5C9.99941 0.223858 10.2233 0 10.4994 0H13.4991C13.7752 0 13.9991 0.223858 13.9991 0.5V1.49984C13.9991 1.77599 13.7752 1.99984 13.4991 1.99984H10.4994C10.2233 1.99984 9.99941 1.77599 9.99941 1.49984V0.5Z" fill="#8483A9"/>
<path d="M0 4.49805C0 4.2219 0.223858 3.99805 0.5 3.99805H7.49938C7.77552 3.99805 7.99938 4.2219 7.99938 4.49805V5.49789C7.99938 5.77403 7.77552 5.99789 7.49938 5.99789H0.5C0.223858 5.99789 0 5.77403 0 5.49789V4.49805Z" fill="#FFB33F"/>
<path d="M0 8.50195C0 8.22581 0.223858 8.00195 0.5 8.00195H4.49961C4.77575 8.00195 4.99961 8.22581 4.99961 8.50195V9.5018C4.99961 9.77794 4.77575 10.0018 4.49961 10.0018H0.500001C0.223858 10.0018 0 9.77794 0 9.5018V8.50195Z" fill="#FA9876"/>
<path d="M0 12.5C0 12.2239 0.223858 12 0.5 12H6.49945C6.7756 12 6.99945 12.2239 6.99945 12.5V13.4998C6.99945 13.776 6.7756 13.9998 6.49945 13.9998H0.5C0.223858 13.9998 0 13.776 0 13.4998V12.5Z" fill="#B998FE"/>
<g opacity="0.4">
<path d="M10 4.49805C10 4.2219 10.2239 3.99805 10.5 3.99805H13.4997C13.7758 3.99805 13.9997 4.2219 13.9997 4.49805V5.49789C13.9997 5.77403 13.7758 5.99789 13.4997 5.99789H10.5C10.2239 5.99789 10 5.77403 10 5.49789V4.49805Z" fill="#8483A9"/>
<path d="M10 8.50146C10 8.22531 10.2239 8.00146 10.5 8.00146H13.4997C13.7758 8.00146 13.9997 8.22531 13.9997 8.50146V9.5013C13.9997 9.77744 13.7758 10.0013 13.4997 10.0013H10.5C10.2239 10.0013 10 9.77744 10 9.5013V8.50146Z" fill="#8483A9"/>
<path d="M10 12.5003C10 12.2242 10.2239 12.0003 10.5 12.0003H13.4997C13.7758 12.0003 13.9997 12.2242 13.9997 12.5003V13.5002C13.9997 13.7763 13.7758 14.0002 13.4997 14.0002H10.5C10.2239 14.0002 10 13.7763 10 13.5002V12.5003Z" fill="#8483A9"/>
</g>
</svg>
