<svg width="14" height="14" viewBox="0 0 14 14" fill="none" xmlns="http://www.w3.org/2000/svg">
<path d="M9.67509 7.75781H13.999C13.6109 11.2683 10.6347 13.9988 7.02074 13.9988C5.26731 13.9988 3.66401 13.3561 2.43359 12.2933L5.57178 9.33414C5.99316 9.5938 6.48945 9.74359 7.02074 9.74359C8.2774 9.74359 9.33832 8.90553 9.67509 7.75781Z" fill="#FFB33F"/>
<path d="M7.79883 4.32393V0C11.0532 0.359754 13.6372 2.94377 13.997 6.19816H9.67306C9.40889 5.29786 8.69912 4.5881 7.79883 4.32393Z" fill="#FA9876"/>
<path d="M6.24101 4.32393C5.0933 4.6607 4.25523 5.72162 4.25523 6.97828C4.25523 7.40723 4.35288 7.81337 4.52715 8.17569L1.37308 11.1499C0.510206 9.98353 0 8.54049 0 6.97828C0 3.36431 2.73048 0.388069 6.24101 0V4.32393Z" fill="#B998FE"/>
</svg>
