<svg xmlns="http://www.w3.org/2000/svg" width="14" height="14" viewBox="0 0 14 14">
    <path d="M12.5 0A1.5 1.5 0 0 1 14 1.5v11a1.5 1.5 0 0 1-1.5 1.5h-11A1.5 1.5 0 0 1 0 12.5v-11A1.5 1.5 0 0 1 1.5 0h11zm0 1h-11a.5.5 0 0 0-.5.5v11a.5.5 0 0 0 .5.5h11a.5.5 0 0 0 .5-.5v-11a.5.5 0 0 0-.5-.5zm-7 9a.5.5 0 0 1 .09.992L5.5 11h-3a.5.5 0 0 1-.09-.992L2.5 10h3zm6 0a.5.5 0 0 1 .09.992L11.5 11h-3a.5.5 0 0 1-.09-.992L8.5 10h3zm-6-3.5a.5.5 0 0 1 .09.992L5.5 7.5h-3a.5.5 0 0 1-.09-.992L2.5 6.5h3zm6 0a.5.5 0 0 1 .09.992l-.09.008h-3a.5.5 0 0 1-.09-.992L8.5 6.5h3zM2.5 3h3a.5.5 0 0 1 .09.992L5.5 4h-3a.5.5 0 0 1-.09-.992L2.5 3h3zm6 0h3a.5.5 0 0 1 .09.992L11.5 4h-3a.5.5 0 0 1-.09-.992L8.5 3h3z"/>
</svg>
