<svg width="14" height="12" viewBox="0 0 14 12" fill="none" xmlns="http://www.w3.org/2000/svg">
<path d="M0 10.5C0 10.2238 0.223837 10 0.499954 10H5.49949C5.77561 10 5.99945 10.2238 5.99945 10.5V11.4999C5.99945 11.776 5.77561 11.9998 5.49949 11.9998H0.499954C0.223837 11.9998 0 11.776 0 11.4999V10.5Z" fill="#8483A9"/>
<path d="M7.99926 10.5C7.99926 10.2238 8.2231 10 8.49922 10H13.4988C13.7749 10 13.9987 10.2238 13.9987 10.5V11.4999C13.9987 11.776 13.7749 11.9998 13.4988 11.9998H8.49922C8.2231 11.9998 7.99926 11.776 7.99926 11.4999V10.5Z" fill="#8483A9"/>
<path d="M7 0C9.20914 0 11 1.79086 11 4C11 6.20914 9.20914 8 7 8C4.79086 8 3 6.20914 3 4C3 1.79086 4.79086 0 7 0Z" fill="#FFB33F"/>
</svg>
