<svg xmlns="http://www.w3.org/2000/svg" viewBox="0 0 40 42">
  <path fill-rule="evenodd" d="M31.5 5.25h5.875c1.1045695 0 2 .8954305 2 2V40c0 1.1045695-.8954305 2-2 2H2c-1.1045695 0-2-.8954305-2-2V7.25c0-1.1045695.8954305-2 2-2h5.875V2c0-1.1045695.8954305-2 2-2h1.25c1.1045695 0 2 .8954305 2 2v3.25H26.25V2c0-1.1045695.8954305-2 2-2h1.25c1.1045695 0 2 .8954305 2 2v3.25zM5.25 13.125v5.25h5.25v-5.25H5.25zm0 7.875v5.25h5.25V21H5.25zm0 7.875v5.25h5.25v-5.25H5.25zm7.875-15.75v5.25h5.25v-5.25h-5.25zm0 7.875v5.25h5.25V21h-5.25zm0 7.875v5.25h5.25v-5.25h-5.25zM21 13.125v5.25h5.25v-5.25H21zm7.875 0v5.25h5.25v-5.25h-5.25zM21 21v5.25h5.25V21H21zm0 7.875v5.25h5.25v-5.25H21zM28.875 21v5.25h5.25V21h-5.25zm0 7.875v5.25h5.25v-5.25h-5.25z"/>
</svg>
