<svg xmlns="http://www.w3.org/2000/svg" width="10" height="12" viewBox="0 0 10 12">
  <path d="M13,8.99166667 C13.8083333,8.43333333 14.375,7.51666667 14.375,6.66666667 C14.375,4.78333333 12.9166667,3.33333333 11.0416667,3.33333333 L5.83333333,3.33333333 L5.83333333,15 L11.7,15 C13.4416667,15 14.7916667,13.5833333 14.7916667,11.8416667 C14.7916667,10.575 14.075,9.49166667 13,8.99166667 Z M8.33333333,5.41666667 L10.8333333,5.41666667 C11.525,5.41666667 12.0833333,5.975 12.0833333,6.66666667 C12.0833333,7.35833333 11.525,7.91666667 10.8333333,7.91666667 L8.33333333,7.91666667 L8.33333333,5.41666667 Z M11.25,12.9166667 L8.33333333,12.9166667 L8.33333333,10.4166667 L11.25,10.4166667 C11.9416667,10.4166667 12.5,10.975 12.5,11.6666667 C12.5,12.3583333 11.9416667,12.9166667 11.25,12.9166667 Z" transform="translate(-5 -3)"/>
</svg>
