<svg xmlns="http://www.w3.org/2000/svg" width="24" height="24" fill="currentColor" viewBox="0 0 24 24">
  <path fill-rule="evenodd" d="M5 3.5A1.5 1.5 0 0 1 6.5 2h6.667l.112.003a6.825 6.825 0 0 1 .761.084 6.776 6.776 0 0 1 1.771.549c.666.317 1.392.815 1.951 1.598.57.798.905 1.804.905 3.016 0 1.214-.337 2.22-.911 3.02-.154.213-.32.406-.494.579C18.657 11.742 20 13.272 20 15.75c0 2.836-1.596 4.462-3.104 5.301a8.125 8.125 0 0 1-2.921.942s-.094.007-.142.007H6.5A1.5 1.5 0 0 1 5 20.5v-17ZM13.74 19l.056-.008a5.127 5.127 0 0 0 1.642-.562c.823-.46 1.562-1.21 1.562-2.68 0-1.362-.781-2.131-1.833-2.64a6.826 6.826 0 0 0-1.504-.508 6.927 6.927 0 0 0-.598-.102H8V19h5.74ZM8 9.5h5.12l.077-.005c.073-.006.187-.018.327-.041a3.86 3.86 0 0 0 .99-.3c.338-.16.614-.37.806-.636.18-.251.347-.635.347-1.268 0-.635-.166-1.02-.346-1.271-.19-.267-.464-.475-.799-.634a3.782 3.782 0 0 0-.98-.3A3.831 3.831 0 0 0 13.145 5H8v4.5Zm5.014 2.994h.002Z" clip-rule="evenodd"/>
</svg>
