<svg xmlns="http://www.w3.org/2000/svg" width="10" height="12" viewBox="0 0 10 12">
  <path d="M5,63 C6.51530612,63 7.76494169,64.1955175 7.85226859,65.6899144 L7.85714286,65.8571429 L7.85714286,67.1428571 L9.28571429,67.1428571 C9.67857143,67.1428571 9.95138889,67.3829365 9.99413029,67.7530589 L10,67.8571429 L10,74.2857143 C10,74.6785714 9.75992063,74.9513889 9.38979828,74.9941303 L9.28571429,75 L0.714285714,75 C0.321428571,75 0.0486111111,74.7599206 0.00586970899,74.3897983 L0,74.2857143 L0,67.8571429 C0,67.4642857 0.240079365,67.1914683 0.61020172,67.1487269 L0.714285714,67.1428571 L2.14285714,67.1428571 L2.14285714,65.8571429 C2.14285714,64.2857143 3.42857143,63 5,63 Z M5,69.2857143 C4.21428571,69.2857143 3.57142857,69.9285714 3.57142857,70.7142857 C3.57142857,71.1688312 3.80755608,71.6233766 4.17248041,71.8632607 L4.28571429,71.9285714 L4.28571429,72.8571429 L5.71428571,72.8571429 L5.71428571,71.9285714 C6.14285714,71.7142857 6.42857143,71.2142857 6.42857143,70.7142857 C6.42857143,69.9285714 5.78571429,69.2857143 5,69.2857143 Z M5,64.4285714 C4.21428571,64.4285714 3.57142857,65.0714286 3.57142857,65.8571429 L3.57142857,65.8571429 L3.57142857,67.1428571 L6.42857143,67.1428571 L6.42857143,65.8571429 C6.42857143,65.0714286 5.78571429,64.4285714 5,64.4285714 Z" transform="translate(0 -63)"/>
</svg>
