<svg xmlns="http://www.w3.org/2000/svg" width="24" height="24" fill="currentColor" viewBox="0 0 24 24">
  <path fill-rule="evenodd" d="M12.864 3.05a.952.952 0 0 0-1.728 0L8.675 8.354l-5.836.687a.95.95 0 0 0-.792.647.942.942 0 0 0 .258.987l4.315 3.966-1.145 5.729a.943.943 0 0 0 .373.95c.3.216.7.24 1.024.06L12 18.526l5.128 2.854a.956.956 0 0 0 1.023-.06.943.943 0 0 0 .375-.95l-1.146-5.73 4.315-3.965a.942.942 0 0 0 .258-.987.95.95 0 0 0-.792-.647l-5.836-.687-2.461-5.304Z" clip-rule="evenodd"/>
</svg>
