<svg width="16" height="15" viewBox="0 0 16 15" fill="none" xmlns="http://www.w3.org/2000/svg">
<path d="M3.504 14.7681C3.32039 14.8633 3.10722 14.707 3.14267 14.5033L3.9777 9.70412C3.99195 9.62222 3.96456 9.53859 3.90461 9.481L0.370029 6.08474C0.219848 5.94044 0.301627 5.68653 0.507796 5.657L5.39883 4.95642C5.47996 4.9448 5.55024 4.89415 5.58693 4.82087L7.77694 0.446671C7.86912 0.262568 8.13186 0.262568 8.22404 0.446672L10.414 4.82087C10.4507 4.89415 10.521 4.9448 10.6021 4.95642L15.4932 5.657C15.6994 5.68653 15.7811 5.94044 15.6309 6.08474L12.0964 9.481C12.0364 9.53859 12.009 9.62222 12.0233 9.70412L12.8583 14.5033C12.8938 14.707 12.6806 14.8633 12.497 14.7681L8.11552 12.4975C8.04339 12.4601 7.95759 12.4601 7.88546 12.4975L3.504 14.7681Z"/>
</svg>
