<svg xmlns="http://www.w3.org/2000/svg" width="10" height="12" viewBox="0 0 10 12">
  <path d="M17.8571429,67.1428571 L19.2857143,67.1428571 C19.6785714,67.1428571 19.9513889,67.3829365 19.9941303,67.7530589 L20,67.8571429 L20,74.2857143 C20,74.6785714 19.7599206,74.9513889 19.3897983,74.9941303 L19.2857143,75 L10.7142857,75 C10.3214286,75 10.0486111,74.7599206 10.0058697,74.3897983 L10,74.2857143 L10,67.8571429 C10,67.4642857 10.2400794,67.1914683 10.6102017,67.1487269 L10.7142857,67.1428571 L12.1428571,67.1428571 L12.1428571,65.8571429 C12.1428571,64.2857143 13.4285714,63 15,63 C15.9995821,63 16.8835584,63.5202261 17.3945509,64.3033003 L16.101095,64.949545 C15.8385202,64.6318691 15.4418487,64.4285714 15,64.4285714 C14.2605042,64.4285714 13.6475531,64.9980227 13.5780001,65.7200721 L13.5714286,65.8571429 L13.5714286,67.1428571 L15.7142857,67.1428571 L17.8571429,67.1428571 Z M15,69.2857143 C14.2142857,69.2857143 13.5714286,69.9285714 13.5714286,70.7142857 C13.5714286,71.1688312 13.8075561,71.6233766 14.1724804,71.8632607 L14.2857143,71.9285714 L14.2857143,72.8571429 L15.7142857,72.8571429 L15.7142857,71.9285714 C16.1428571,71.7142857 16.4285714,71.2142857 16.4285714,70.7142857 C16.4285714,69.9285714 15.7857143,69.2857143 15,69.2857143 Z" transform="translate(-10 -63)"/>
</svg>
