<svg width="11" height="16" viewBox="0 0 11 16" fill="none" xmlns="http://www.w3.org/2000/svg">
<g clip-path="url(#clip0_775_5192)">
<path d="M7.91 13.6001V6.47006H6.62C6.41 6.47006 6.41 6.47006 6.41 6.70006V13.6001H7.91ZM3.39 13.6101H4.68C4.89 13.6101 4.89 13.6101 4.89 13.3801V6.58006C4.87 6.54006 4.82 6.48006 4.79 6.48006H3.4V13.6101H3.39ZM1.1 4.10006H10.2V14.3501C10.2 15.3001 9.54 15.9901 8.64 15.9901H2.66C1.76 15.9901 1.1 15.2901 1.1 14.3501V4.10006ZM0 3.52006V1.72006H0.2L2.96 1.71006C3.05 1.71006 3.16 1.65006 3.23 1.58006C3.43 1.37006 3.61 1.13006 3.81 0.920059C3.87 0.850059 3.96 0.810059 4.04 0.810059H6.9C6.97 0.810059 7.06 0.850059 7.12 0.910059C7.32 1.13006 7.5 1.37006 7.71 1.58006C7.77 1.65006 7.88 1.71006 7.98 1.71006H10.93V3.52006H0Z" fill="#DC2626"/>
</g>
<defs>
<clipPath id="clip0_775_5192">
<rect width="11" height="16" fill="white"/>
</clipPath>
</defs>
</svg>
