<svg xmlns="http://www.w3.org/2000/svg" width="10" height="14" viewBox="0 0 10 14">
  <path fill="#ED4C4C" d="M9.12461452,4.29411765 L9.12461452,13.5233266 C9.12461452,14.3787167 8.52326885,15 7.70325203,15 L2.25469582,15 C1.434679,15 0.833333333,14.3697126 0.833333333,13.5233266 L0.833333333,4.29411765 L9.12461452,4.29411765 Z M7.03812728,6.42809083 L5.86276983,6.42809083 C5.69534973,6.42809083 5.67442222,6.42809083 5.67180628,6.56682793 L5.67143258,12.8480186 L7.03812728,12.8480186 L7.03812728,6.42809083 Z M4.08059994,6.42809083 L2.9052425,6.42809083 L2.9052425,12.8480186 L4.2719372,12.8480186 L4.2715635,6.56682793 C4.26969497,6.46773 4.2584838,6.43941631 4.1912168,6.43132668 L4.14375619,6.42849531 Z M6.31290027,1 C6.37694419,1 6.45928637,1.03646625 6.51418115,1.09116562 C6.69716377,1.29172998 6.86184812,1.51052746 7.05397987,1.70197526 C7.10887466,1.76579119 7.2095151,1.82049056 7.3010064,1.82049056 L10,1.82049056 L10,3.47058824 L0,3.47058824 L0,1.82960712 L2.70814273,1.82049056 C2.7904849,1.82049056 2.89112534,1.76579119 2.95516926,1.70197526 C3.13815188,1.51052746 3.30283623,1.29172998 3.48581885,1.10028218 C3.54071363,1.03646625 3.62305581,1 3.69624886,1 L6.31290027,1 Z" transform="translate(0 -1)"/>
</svg>
