<svg width="16" height="16" viewBox="0 0 16 16" fill="none" xmlns="http://www.w3.org/2000/svg">
<path fill-rule="evenodd" clip-rule="evenodd" d="M14.4713 12.4716C14.662 12.2809 14.719 11.9942 14.6159 11.745C14.5127 11.4959 14.2696 11.3335 13.9999 11.3335H12.6666V2.00016C12.6666 1.63197 12.3681 1.3335 12 1.3335C11.6318 1.3335 11.3333 1.63197 11.3333 2.00016L11.3333 11.3335L9.99994 11.3335C9.7303 11.3335 9.48721 11.4959 9.38402 11.745C9.28083 11.9942 9.33787 12.2809 9.52853 12.4716L11.5285 14.4716C11.7889 14.7319 12.211 14.7319 12.4713 14.4716L14.4713 12.4716Z" fill="white"/>
<path d="M5.16699 1.33008C5.90325 1.33024 6.5 1.9268 6.5 2.66309V3.99609C6.5 4.73238 5.90325 5.32992 5.16699 5.33008H3.83301C3.09678 5.32989 2.5 4.73237 2.5 3.99609V2.66309C2.5 1.92681 3.09678 1.33026 3.83301 1.33008H5.16699ZM3.83301 2.21875C3.58776 2.21895 3.38874 2.4178 3.38867 2.66309V3.99609C3.38867 4.24143 3.58771 4.44121 3.83301 4.44141H5.16699C5.41233 4.44126 5.61133 4.24147 5.61133 3.99609V2.66309C5.61126 2.41777 5.41229 2.21889 5.16699 2.21875H3.83301Z" fill="white"/>
<path d="M5.16699 5.99658C5.90317 5.99674 6.49987 6.59341 6.5 7.32959V8.66357C6.49978 9.39968 5.90311 9.99642 5.16699 9.99658H3.83301C3.09691 9.9964 2.50022 9.39967 2.5 8.66357V7.32959C2.50013 6.59342 3.09685 5.99677 3.83301 5.99658H5.16699ZM3.83301 6.88525C3.58783 6.88545 3.38886 7.08441 3.38867 7.32959V8.66357C3.38883 8.90878 3.58781 9.10771 3.83301 9.10791H5.16699C5.41224 9.10777 5.61117 8.90881 5.61133 8.66357V7.32959C5.61114 7.08437 5.41222 6.8854 5.16699 6.88525H3.83301Z" fill="white"/>
<path d="M6.50005 11.9969C6.50005 11.2605 5.90309 10.6636 5.1667 10.6636H3.83335C3.09696 10.6636 2.5 11.2605 2.5 11.9969V13.3303C2.5 14.0667 3.09696 14.6636 3.83335 14.6636H5.1667C5.90309 14.6636 6.50005 14.0667 6.50005 13.3303V11.9969Z" fill="white"/>
</svg>
