<svg xmlns="http://www.w3.org/2000/svg" width="15" height="14" viewBox="0 0 15 14">
  <g fill="none" fill-rule="evenodd" transform="matrix(1 0 0 -1 0 14)">
    <path fill="#B3C9FF" d="M5.35636978,0 C5.63251216,2.82340376e-16 5.85636978,0.223857625 5.85636978,0.5 C5.85636978,0.632608245 5.80369136,0.759785201 5.70992317,0.853553391 L2.70992317,3.85355339 C2.61615498,3.94732158 2.48897803,4 2.35636978,4 L0.5,4 C0.223857625,4 3.38176876e-17,3.77614237 0,3.5 L0,0.5 C-3.38176876e-17,0.223857625 0.223857625,5.07265313e-17 0.5,0 L5.35636978,0 Z M14.5,0 C14.7761424,5.07265313e-17 15,0.223857625 15,0.5 L15,0.5 L15,3.5 C15,3.77614237 14.7761424,4 14.5,4 L14.5,4 L12.6354515,4 C12.5028433,4 12.3756663,3.94732158 12.2818981,3.85355339 L12.2818981,3.85355339 L9.28189812,0.853553391 C9.18812993,0.759785201 9.13545151,0.632608245 9.13545151,0.5 C9.13545151,0.223857625 9.35930913,-5.07265313e-17 9.63545151,0 L9.63545151,0 Z"/>
    <path fill="#4277FF" d="M0.5,10 L14.5,10 C14.7761424,10 15,10.2238576 15,10.5 L15,13.5 C15,13.7761424 14.7761424,14 14.5,14 L0.5,14 C0.223857625,14 3.38176876e-17,13.7761424 0,13.5 L0,10.5 C-3.38176876e-17,10.2238576 0.223857625,10 0.5,10 Z"/>
    <path fill="#7A9FFF" d="M.5 5L5.5 5C5.77614237 5 6 5.22385763 6 5.5L6 8.5C6 8.77614237 5.77614237 9 5.5 9L.5 9C.223857625 9 3.63801262e-12 8.77614237 3.63797881e-12 8.5L3.63797881e-12 5.5C3.63794499e-12 5.22385763.223857625 5 .5 5zM9.5 5L14.5 5C14.7761424 5 15 5.22385763 15 5.5L15 8.5C15 8.77614237 14.7761424 9 14.5 9L9.5 9C9.22385763 9 9 8.77614237 9 8.5L9 5.5C9 5.22385763 9.22385763 5 9.5 5z"/>
    <path fill="#4277FF" d="M7.8550246,0.852051124 L10.598221,3.57248765 C10.6962584,3.66971073 10.6969185,3.8280006 10.5996954,3.92603796 C10.5527528,3.97337374 10.4888485,4 10.4221831,4 L7.99929605,3.99908967 L8,12 L7,12 L6.99929605,3.99908967 L4.62929605,4 C4.49122486,4 4.37929605,3.88807119 4.37929605,3.75 C4.37929605,3.68406011 4.40534746,3.62079047 4.45177752,3.57396826 L7.14793653,0.855037057 C7.34236336,0.658943157 7.65894305,0.657611837 7.8550246,0.852051124 Z"/>
  </g>
</svg>
