<svg width="16" height="16" viewBox="0 0 16 16" fill="none" xmlns="http://www.w3.org/2000/svg">
<path fill-rule="evenodd" clip-rule="evenodd" d="M14.4714 12.4716C14.662 12.2809 14.7191 11.9942 14.6159 11.745C14.5127 11.4959 14.2696 11.3335 14 11.3335H12.6666V2.00016C12.6666 1.63197 12.3682 1.3335 12 1.3335C11.6318 1.3335 11.3333 1.63197 11.3333 2.00016L11.3333 11.3335L9.99996 11.3335C9.73032 11.3335 9.48723 11.4959 9.38404 11.745C9.28085 11.9942 9.33789 12.2809 9.52856 12.4716L11.5286 14.4716C11.7889 14.7319 12.211 14.7319 12.4714 14.4716L14.4714 12.4716ZM7.33331 3.3335V5.3335C7.33331 6.43807 6.43788 7.3335 5.33331 7.3335H3.33331C2.22874 7.3335 1.33331 6.43807 1.33331 5.3335L1.33331 3.3335C1.33331 2.22893 2.22874 1.3335 3.33331 1.3335L5.33331 1.3335C6.43788 1.3335 7.33331 2.22893 7.33331 3.3335ZM5.99998 3.3335C5.99998 2.96531 5.7015 2.66683 5.33331 2.66683L3.33331 2.66683C2.96512 2.66683 2.66665 2.96531 2.66665 3.3335L2.66665 5.3335C2.66665 5.70169 2.96512 6.00016 3.33331 6.00016H5.33331C5.7015 6.00016 5.99998 5.70169 5.99998 5.3335V3.3335ZM7.33331 10.6668C7.33331 9.56226 6.43788 8.66683 5.33331 8.66683H3.33331C2.22874 8.66683 1.33331 9.56226 1.33331 10.6668L1.33331 12.6668C1.33331 13.7714 2.22874 14.6668 3.33331 14.6668H5.33331C6.43788 14.6668 7.33331 13.7714 7.33331 12.6668V10.6668Z" fill="white"/>
</svg>
