<svg width="16" height="16" viewBox="0 0 16 16" fill="none" xmlns="http://www.w3.org/2000/svg">
<path fill-rule="evenodd" clip-rule="evenodd" d="M14.4714 3.52876C14.6621 3.71942 14.7191 4.00617 14.6159 4.25529C14.5127 4.5044 14.2696 4.66683 14 4.66683H12.6667V14.0002C12.6667 14.3684 12.3682 14.6668 12 14.6668C11.6318 14.6668 11.3334 14.3684 11.3334 14.0002L11.3334 4.66683L10 4.66683C9.73036 4.66683 9.48727 4.5044 9.38408 4.25529C9.28089 4.00617 9.33793 3.71942 9.5286 3.52876L11.5286 1.52876C11.7889 1.26841 12.2111 1.26841 12.4714 1.52876L14.4714 3.52876Z" fill="white"/>
<path d="M6.49966 2.6633C6.49966 1.92698 5.90276 1.33008 5.16644 1.33008H3.83322C3.0969 1.33008 2.5 1.92698 2.5 2.6633V3.99652C2.5 4.73283 3.0969 5.32974 3.83322 5.32974H5.16644C5.90276 5.32974 6.49966 4.73283 6.49966 3.99652V2.6633Z" fill="white"/>
<path d="M5.16602 5.99658C5.90233 5.99658 6.5 6.59425 6.5 7.33057V8.66357C6.49987 9.39978 5.90225 9.99658 5.16602 9.99658H3.83301C3.09687 9.99647 2.50013 9.39971 2.5 8.66357V7.33057C2.5 6.59432 3.09679 5.9967 3.83301 5.99658H5.16602ZM3.83301 6.88525C3.58782 6.88538 3.38889 7.08442 3.38867 7.32959V8.66357C3.38886 8.90877 3.5878 9.10778 3.83301 9.10791H5.16602C5.41134 9.10791 5.61114 8.90885 5.61133 8.66357V7.32959C5.61111 7.08434 5.41132 6.88525 5.16602 6.88525H3.83301Z" fill="white"/>
<path d="M5.16602 10.6631C5.90217 10.6631 6.49974 11.26 6.5 11.9961V13.3301C6.49985 14.0663 5.90224 14.6631 5.16602 14.6631H3.83301C3.09688 14.663 2.50015 14.0662 2.5 13.3301V11.9961C2.50026 11.2601 3.09695 10.6632 3.83301 10.6631H5.16602ZM3.83301 11.5527C3.58768 11.5529 3.38867 11.7517 3.38867 11.9971V13.3301C3.38867 13.5754 3.58768 13.7743 3.83301 13.7744H5.16602C5.41145 13.7744 5.61133 13.5755 5.61133 13.3301V11.9971C5.61133 11.7516 5.41145 11.5527 5.16602 11.5527H3.83301Z" fill="white"/>
</svg>
