<svg xmlns="http://www.w3.org/2000/svg" width="15" height="14" viewBox="0 0 15 14">
  <g fill="none" fill-rule="evenodd" transform="matrix(1 0 0 -1 0 14)">
    <path fill="#B3C9FF" d="M5.35636978,5 C5.63251216,5 5.85636978,5.22385763 5.85636978,5.5 C5.85636978,5.63260824 5.80369136,5.7597852 5.70992317,5.85355339 L2.70992317,8.85355339 C2.61615498,8.94732158 2.48897803,9 2.35636978,9 L0.5,9 C0.223857625,9 3.38176876e-17,8.77614237 0,8.5 L0,5.5 C-3.38176876e-17,5.22385763 0.223857625,5 0.5,5 L5.35636978,5 Z M14.5,5 C14.7761424,5 15,5.22385763 15,5.5 L15,5.5 L15,8.5 C15,8.77614237 14.7761424,9 14.5,9 L14.5,9 L12.6354515,9 C12.5028433,9 12.3756663,8.94732158 12.2818981,8.85355339 L12.2818981,8.85355339 L9.28189812,5.85355339 C9.18812993,5.7597852 9.13545151,5.63260824 9.13545151,5.5 C9.13545151,5.22385763 9.35930913,5 9.63545151,5 L9.63545151,5 Z"/>
    <path fill="#4277FF" d="M0.5,10 L14.5,10 C14.7761424,10 15,10.2238576 15,10.5 L15,13.5 C15,13.7761424 14.7761424,14 14.5,14 L0.5,14 C0.223857625,14 3.38176876e-17,13.7761424 0,13.5 L0,10.5 C-3.38176876e-17,10.2238576 0.223857625,10 0.5,10 Z"/>
    <path fill="#7A9FFF" d="M0.5,0 L14.5,0 C14.7761424,-5.07265313e-17 15,0.223857625 15,0.5 L15,3.5 C15,3.77614237 14.7761424,4 14.5,4 L0.5,4 C0.223857625,4 3.63801262e-12,3.77614237 3.63797881e-12,3.5 L3.63797881e-12,0.5 C3.63794499e-12,0.223857625 0.223857625,5.07265313e-17 0.5,0 Z"/>
    <path fill="#4277FF" d="M7.8550246,5.85205112 L10.598221,8.57248765 C10.6962584,8.66971073 10.6969185,8.8280006 10.5996954,8.92603796 C10.5527528,8.97337374 10.4888485,9 10.4221831,9 L7.99929605,8.99908967 L8,12 L7,12 L6.99929605,8.99908967 L4.62929605,9 C4.49122486,9 4.37929605,8.88807119 4.37929605,8.75 C4.37929605,8.68406011 4.40534746,8.62079047 4.45177752,8.57396826 L7.14793653,5.85503706 C7.34236336,5.65894316 7.65894305,5.65761184 7.8550246,5.85205112 Z"/>
  </g>
</svg>
