<svg width="16" height="16" viewBox="0 0 16 16" fill="none" xmlns="http://www.w3.org/2000/svg">
<path fill-rule="evenodd" clip-rule="evenodd" d="M14.4714 3.52876C14.662 3.71942 14.7191 4.00617 14.6159 4.25529C14.5127 4.5044 14.2696 4.66683 14 4.66683H12.6666V14.0002C12.6666 14.3684 12.3682 14.6668 12 14.6668C11.6318 14.6668 11.3333 14.3684 11.3333 14.0002L11.3333 4.66683L9.99996 4.66683C9.73032 4.66683 9.48723 4.5044 9.38404 4.25529C9.28085 4.00617 9.33789 3.71942 9.52856 3.52876L11.5286 1.52876C11.7889 1.26841 12.211 1.26841 12.4714 1.52876L14.4714 3.52876ZM7.33331 12.6668V10.6668C7.33331 9.56226 6.43788 8.66683 5.33331 8.66683H3.33331C2.22874 8.66683 1.33331 9.56226 1.33331 10.6668L1.33331 12.6668C1.33331 13.7714 2.22874 14.6668 3.33331 14.6668H5.33331C6.43788 14.6668 7.33331 13.7714 7.33331 12.6668ZM5.99998 12.6668C5.99998 13.035 5.7015 13.3335 5.33331 13.3335H3.33331C2.96512 13.3335 2.66665 13.035 2.66665 12.6668L2.66665 10.6668C2.66665 10.2986 2.96512 10.0002 3.33331 10.0002H5.33331C5.7015 10.0002 5.99998 10.2986 5.99998 10.6668V12.6668ZM7.33331 5.3335C7.33331 6.43807 6.43788 7.3335 5.33331 7.3335H3.33331C2.22874 7.3335 1.33331 6.43807 1.33331 5.3335L1.33331 3.3335C1.33331 2.22893 2.22874 1.3335 3.33331 1.3335H5.33331C6.43788 1.3335 7.33331 2.22893 7.33331 3.3335V5.3335Z" fill="white"/>
</svg>
